<svg width="92" height="44" viewBox="0 0 92 44" fill="none" xmlns="http://www.w3.org/2000/svg">
<path d="M42.6371 18H39.3371V3.26H42.6371V18ZM51.4811 12.5H40.2611V9.552H51.4811V12.5ZM51.8111 6.23H40.2611V3.26H51.8111V6.23ZM56.516 18H53.216V6.978H56.516V18ZM56.516 5.856H53.216V3.26H56.516V5.856ZM64.4033 21.96C63.2153 21.96 62.1813 21.784 61.3013 21.432C60.436 21.0947 59.7687 20.6033 59.2993 19.958C58.83 19.3127 58.5953 18.528 58.5953 17.604H61.8953C61.8953 18 61.9613 18.3153 62.0933 18.55C62.24 18.7993 62.5113 18.968 62.9073 19.056C63.3033 19.1587 63.8753 19.21 64.6233 19.21C65.3273 19.21 65.8773 19.144 66.2733 19.012C66.684 18.88 66.97 18.6233 67.1313 18.242C67.2927 17.8753 67.3733 17.3327 67.3733 16.614V10.014L67.5933 9.948V6.978H70.6733V16.394C70.6733 17.6847 70.424 18.7333 69.9253 19.54C69.4267 20.3613 68.708 20.97 67.7693 21.366C66.8453 21.762 65.7233 21.96 64.4033 21.96ZM63.0833 16.878C61.9833 16.878 61.052 16.6727 60.2893 16.262C59.5267 15.8513 58.94 15.2647 58.5293 14.502C58.1187 13.7393 57.9133 12.8447 57.9133 11.818C57.9133 10.7913 58.126 9.904 58.5513 9.156C58.9767 8.39333 59.5853 7.80667 60.3773 7.396C61.1693 6.97067 62.1153 6.758 63.2153 6.758C64.3447 6.758 65.2833 7 66.0313 7.484C66.7793 7.968 67.2413 8.68667 67.4173 9.64H68.0333L67.7913 11.686H67.3733C67.3733 11.1873 67.256 10.7913 67.0213 10.498C66.7867 10.19 66.442 9.97 65.9873 9.838C65.5327 9.69133 64.9607 9.618 64.2713 9.618C63.5673 9.618 62.988 9.69133 62.5333 9.838C62.0933 9.97 61.7633 10.1973 61.5433 10.52C61.338 10.828 61.2353 11.2607 61.2353 11.818C61.2353 12.3607 61.338 12.7933 61.5433 13.116C61.7633 13.4387 62.0933 13.6733 62.5333 13.82C62.9733 13.9667 63.538 14.04 64.2273 14.04C65.2833 14.04 66.068 13.8787 66.5813 13.556C67.1093 13.2333 67.3733 12.6907 67.3733 11.928H67.7913V14.128H67.1973C67.0213 14.9493 66.596 15.6167 65.9213 16.13C65.2467 16.6287 64.3007 16.878 63.0833 16.878Z" fill="#222222"/>
<path d="M36.8727 40.22C35.3914 40.22 34.1301 40.0293 33.0887 39.648C32.0474 39.252 31.2554 38.6727 30.7127 37.91C30.1701 37.1327 29.8987 36.172 29.8987 35.028V34.896H33.1987V35.292C33.1987 35.7467 33.2941 36.1133 33.4847 36.392C33.6901 36.6707 34.0567 36.876 34.5847 37.008C35.1127 37.14 35.8754 37.206 36.8727 37.206C37.7527 37.206 38.4274 37.162 38.8967 37.074C39.3661 36.9713 39.6887 36.8173 39.8647 36.612C40.0407 36.4067 40.1287 36.1427 40.1287 35.82C40.1287 35.3653 39.9747 35.0353 39.6667 34.83C39.3734 34.6247 38.8527 34.456 38.1047 34.324L33.9687 33.73C33.0887 33.5833 32.3334 33.3413 31.7027 33.004C31.0867 32.6667 30.6101 32.2193 30.2727 31.662C29.9354 31.09 29.7667 30.4007 29.7667 29.594C29.7667 29.0367 29.8841 28.4867 30.1187 27.944C30.3681 27.4013 30.7567 26.9173 31.2847 26.492C31.8127 26.052 32.5021 25.7 33.3527 25.436C34.2181 25.172 35.2741 25.04 36.5207 25.04C38.0314 25.04 39.2707 25.26 40.2387 25.7C41.2214 26.1253 41.9547 26.734 42.4387 27.526C42.9227 28.3033 43.1647 29.2053 43.1647 30.232V30.364H39.8427V30.056C39.8427 29.5867 39.7401 29.2053 39.5347 28.912C39.3441 28.6187 38.9847 28.406 38.4567 28.274C37.9287 28.1273 37.1734 28.054 36.1907 28.054C35.3987 28.054 34.7754 28.1053 34.3207 28.208C33.8807 28.3107 33.5654 28.4647 33.3747 28.67C33.1841 28.8753 33.0887 29.1393 33.0887 29.462C33.0887 29.7407 33.1474 29.9753 33.2647 30.166C33.3821 30.342 33.5654 30.4813 33.8147 30.584C34.0641 30.6867 34.3941 30.7747 34.8047 30.848L38.9407 31.508C40.0407 31.684 40.9134 31.97 41.5587 32.366C42.2187 32.762 42.6954 33.246 42.9887 33.818C43.2821 34.3753 43.4287 34.9913 43.4287 35.666C43.4287 36.458 43.2087 37.206 42.7687 37.91C42.3287 38.5993 41.6247 39.1567 40.6567 39.582C39.6887 40.0073 38.4274 40.22 36.8727 40.22ZM52.5386 40H49.8106C48.52 40 47.508 39.6847 46.7746 39.054C46.0413 38.4233 45.6746 37.4113 45.6746 36.018V26.844H48.9746V35.644C48.9746 36.2013 49.092 36.5753 49.3266 36.766C49.576 36.942 49.9866 37.03 50.5586 37.03H52.5386V40ZM52.5386 31.706H43.9366V28.978H52.5386V31.706ZM59.6486 40.22C58.4019 40.22 57.3019 39.9853 56.3486 39.516C55.4099 39.0467 54.6766 38.3867 54.1486 37.536C53.6206 36.6707 53.3566 35.6587 53.3566 34.5C53.3566 33.3267 53.6206 32.3147 54.1486 31.464C54.6766 30.5987 55.4099 29.9313 56.3486 29.462C57.3019 28.9927 58.4019 28.758 59.6486 28.758C60.9099 28.758 62.0099 28.9927 62.9486 29.462C63.8873 29.9313 64.6206 30.5987 65.1486 31.464C65.6766 32.3147 65.9406 33.3267 65.9406 34.5C65.9406 35.6587 65.6766 36.6707 65.1486 37.536C64.6206 38.3867 63.8873 39.0467 62.9486 39.516C62.0099 39.9853 60.9099 40.22 59.6486 40.22ZM59.6486 37.294C60.7633 37.294 61.5406 37.074 61.9806 36.634C62.4353 36.1793 62.6626 35.468 62.6626 34.5C62.6626 33.5173 62.4353 32.7987 61.9806 32.344C61.5406 31.8893 60.7633 31.662 59.6486 31.662C58.5339 31.662 57.7493 31.8893 57.2946 32.344C56.8546 32.7987 56.6346 33.5173 56.6346 34.5C56.6346 35.468 56.8546 36.1793 57.2946 36.634C57.7493 37.074 58.5339 37.294 59.6486 37.294ZM70.5883 40H67.2883V28.978H70.3463V32.124L70.5883 32.234V40ZM70.5883 33.62H69.9283V31.904H70.5443C70.6469 31.3027 70.8449 30.7673 71.1383 30.298C71.4463 29.814 71.8569 29.44 72.3703 29.176C72.8836 28.8973 73.5069 28.758 74.2403 28.758C75.0763 28.758 75.7436 28.934 76.2423 29.286C76.7556 29.6233 77.1296 30.0853 77.3643 30.672C77.5989 31.244 77.7163 31.8893 77.7163 32.608V34.434H74.4163V33.29C74.4163 32.674 74.2769 32.234 73.9983 31.97C73.7343 31.6913 73.2649 31.552 72.5903 31.552C71.8569 31.552 71.3363 31.7207 71.0283 32.058C70.7349 32.3953 70.5883 32.916 70.5883 33.62ZM81.0233 43.74H79.2193V40.748H81.9253C82.336 40.748 82.644 40.6893 82.8493 40.572C83.0546 40.4547 83.2233 40.2493 83.3553 39.956L83.8173 38.878L83.4873 40.418L77.9213 28.978H81.6613L83.9933 34.016L84.9173 36.612H85.1373L86.0173 33.994L88.1073 28.978H91.7813L86.3253 40.792C85.9733 41.5547 85.5626 42.1487 85.0933 42.574C84.624 43.014 84.0593 43.3147 83.3993 43.476C82.7393 43.652 81.9473 43.74 81.0233 43.74Z" fill="#222222"/>
<path d="M14.9145 15.9608L33.9942 15.9335L33.98 6L14.9003 6.02723C6.6711 6.03898 0.00953306 12.7196 0.0212784 20.9488L0.0220346 21.4786C0.03378 29.7078 6.71439 36.3694 14.9436 36.3577L15.6153 36.3567L15.6208 40.1849L20.1282 40.1785L27.0676 31.3798L20.1031 22.601L15.5957 22.6075L15.6011 26.4232L14.9294 26.4241C12.1863 26.428 9.95949 24.2075 9.95558 21.4644L9.95482 20.9346C9.9509 18.1915 12.1714 15.9647 14.9145 15.9608Z" fill="#222222"/>
</svg>
