<svg width="48" height="48" viewBox="0 0 48 48" fill="none" xmlns="http://www.w3.org/2000/svg">
<path d="M20.314 41.3509C30.4285 41.3509 38.628 33.1514 38.628 23.0369C38.628 12.9224 30.4285 4.7229 20.314 4.7229C10.1995 4.7229 2 12.9224 2 23.0369C2 33.1514 10.1995 41.3509 20.314 41.3509Z" stroke="black" stroke-width="2"/>
<path d="M46.001 24.9628C46.001 35.0774 37.8015 43.2769 27.6868 43.2769L17.498 41.1364C18.416 41.278 19.3566 41.3515 20.3142 41.3515C30.4288 41.3515 38.6284 33.152 38.6284 23.0374C38.6284 14.6574 33 7.59195 25.3174 5.41504L32.9421 7.4138C40.4955 9.67251 46.001 16.6747 46.001 24.9628Z" stroke="black" stroke-width="2"/>
<path d="M20.313 41.4449C25.9861 41.4449 30.585 33.2454 30.585 23.1309C30.585 13.0164 25.9861 4.81689 20.313 4.81689C14.6399 4.81689 10.041 13.0164 10.041 23.1309C10.041 33.2454 14.6399 41.4449 20.313 41.4449Z" stroke="black" stroke-width="2"/>
<path d="M20.3145 4.81738V41.2578" stroke="black" stroke-width="2" stroke-linejoin="round"/>
<path d="M38.5332 23.0371H2.09277" stroke="black" stroke-width="2" stroke-linejoin="round"/>
<path d="M36.0918 13.5977H4.53516" stroke="black" stroke-width="2" stroke-linejoin="round"/>
<path d="M36.0918 32.334H4.53516" stroke="black" stroke-width="2" stroke-linejoin="round"/>
</svg>
