<svg version="1.1" id="Layer_1" xmlns="http://www.w3.org/2000/svg" xmlns:xlink="http://www.w3.org/1999/xlink" x="0px" y="0px"
	 width="100%" viewBox="0 0 883 399" enable-background="new 0 0 883 399" xml:space="preserve">
<path fill="#010000" opacity="1.000000" stroke="none" 
	d="
M657.000000,400.000000 
	C438.000000,400.000000 219.500000,400.000000 1.000000,400.000000 
	C1.000000,267.000000 1.000000,134.000000 1.000000,1.000000 
	C295.333344,1.000000 589.666687,1.000000 884.000000,1.000000 
	C884.000000,134.000000 884.000000,267.000000 884.000000,400.000000 
	C808.500000,400.000000 733.000000,400.000000 657.000000,400.000000 
M710.492554,261.904449 
	C710.642334,261.585052 710.792114,261.265656 711.802307,261.082275 
	C713.464111,260.982849 715.125916,260.883453 717.142822,261.136383 
	C717.264160,261.250763 717.385498,261.365143 717.222107,262.095490 
	C714.999207,265.395813 712.776367,268.696167 710.006653,272.808441 
	C718.511230,273.329437 720.081116,266.196075 725.389587,263.735168 
	C722.949280,267.997040 720.508911,272.258881 718.068604,276.520752 
	C720.028748,276.356354 721.381592,275.692627 722.211243,274.623016 
	C725.620300,270.227936 728.818909,265.670288 732.192078,261.246552 
	C736.104004,256.116425 740.117737,251.063965 744.274658,246.736832 
	C740.847900,257.876953 737.371399,269.002289 734.054565,280.175018 
	C733.617004,281.648926 733.994385,283.364716 733.994385,284.968506 
	C734.565369,285.141479 735.136414,285.314453 735.707397,285.487457 
	C737.447632,284.001465 739.187866,282.515503 740.940918,281.684509 
	C741.003845,282.493652 741.066711,283.302795 741.178894,284.745483 
	C742.826050,282.189606 744.129456,280.167053 745.432922,278.144531 
	C745.942139,278.444763 746.451294,278.744995 746.960510,279.045227 
	C744.554199,283.602386 742.147949,288.159546 739.098938,293.933807 
	C743.290771,293.508667 746.297668,293.633942 748.955078,292.730927 
	C750.081360,292.348206 750.351685,289.734222 751.221802,288.258667 
	C754.315857,283.011780 756.667480,276.998810 760.823425,272.774353 
	C769.654236,263.797729 777.765198,253.838959 789.230225,247.775558 
	C790.334290,247.191635 791.312012,246.051804 791.938965,244.939285 
	C794.277039,240.790741 796.162537,236.156830 802.463562,237.988510 
	C802.926941,238.123199 803.716797,237.623718 804.174377,237.216370 
	C811.494873,230.698730 818.752258,224.109741 826.102295,217.625763 
	C828.656921,215.372116 831.585388,213.530853 834.061829,211.202148 
	C839.487122,206.100464 846.127625,202.088898 848.924072,194.578064 
	C851.108215,188.711823 853.529114,182.933762 855.844849,177.116501 
	C856.248413,177.236206 856.651978,177.355927 857.055603,177.475632 
	C856.743286,179.862717 856.431030,182.249786 856.118774,184.636871 
	C856.604126,184.772125 857.089417,184.907394 857.574768,185.042664 
	C859.681519,178.366104 861.223511,171.440247 864.033508,165.074081 
	C867.813171,156.511032 868.578796,148.078033 866.188538,139.116623 
	C865.124451,135.126953 864.705505,130.968033 863.926514,126.898781 
	C862.842529,121.236069 858.185852,116.719177 853.181763,116.395531 
	C855.709229,120.627930 858.236694,124.860329 860.741821,129.055344 
	C857.240356,128.096237 854.504211,127.346764 851.768127,126.597290 
	C851.547241,127.140442 851.326294,127.683594 851.105408,128.226746 
	C852.173645,128.990677 853.397461,129.609375 854.275635,130.550613 
	C855.808411,132.193527 858.495361,134.217987 858.288879,135.759888 
	C857.584717,141.018402 855.818420,146.133194 854.492615,151.311829 
	C854.333130,151.934631 854.107300,152.789200 854.388550,153.237778 
	C857.283325,157.855652 854.120605,161.664581 852.441956,165.360138 
	C849.529602,171.771561 846.334900,178.141266 842.480164,184.017853 
	C836.627197,192.940857 830.609863,201.832275 821.490845,208.018036 
	C819.387146,209.445084 816.951111,211.531601 816.340454,213.770706 
	C815.074097,218.413910 811.600464,218.675781 808.096680,220.210770 
	C803.431580,222.254562 798.317932,225.030838 795.536072,228.994003 
	C793.706726,231.600128 792.850403,234.127258 789.419800,234.793762 
	C788.584534,234.956039 787.827576,235.731750 787.124634,236.331070 
	C781.201965,241.380646 775.262573,246.411728 769.405579,251.536774 
	C765.573303,254.890121 760.588928,257.726135 758.388306,261.969879 
	C754.436096,269.591522 748.073181,274.191498 741.751953,278.325989 
	C749.047546,261.214966 758.324036,245.444260 772.049744,233.571243 
	C773.382141,234.339722 774.718811,234.546707 775.594910,234.006577 
	C782.061035,230.020096 788.562500,226.068481 794.805420,221.748260 
	C802.158386,216.659836 809.450256,211.442749 816.384338,205.808472 
	C819.265991,203.466995 821.153381,199.901855 823.492920,196.893188 
	C823.113159,196.567749 822.733459,196.242325 822.353699,195.916885 
	C813.394409,207.364899 802.236572,215.987640 788.560242,221.734604 
	C788.328369,221.572495 788.096436,221.410385 788.233215,220.650543 
	C789.198486,219.762436 790.061035,218.716827 791.144714,218.010345 
	C803.115601,210.205795 812.676941,199.794800 821.440857,188.779953 
	C825.838196,183.253220 830.406799,176.653610 831.411438,170.011841 
	C832.243225,164.512604 833.035950,159.390808 835.865295,154.032806 
	C836.110291,153.532944 836.355286,153.033066 836.898376,151.959900 
	C836.860474,151.361435 836.822571,150.762955 836.784729,150.164474 
	C836.622620,150.148697 836.460449,150.132904 836.298340,150.117126 
	C836.145569,150.696060 835.992737,151.274994 835.299194,152.122314 
	C835.143066,152.696640 834.986938,153.270981 834.059326,153.542114 
	C833.955750,152.121414 833.478638,150.605774 833.811523,149.296005 
	C835.490845,142.688828 838.775818,136.888092 837.885803,129.173599 
	C837.120422,122.539848 840.960999,115.395576 837.364136,108.351959 
	C836.742188,109.269516 836.029114,110.321411 834.994873,111.847061 
	C834.994873,106.673164 834.994873,102.058731 834.994873,97.437431 
	C833.116455,97.759186 831.686401,98.004135 830.256409,98.249092 
	C830.685547,98.456024 831.114746,98.662964 831.543884,98.869904 
	C828.722778,106.896507 826.356018,115.119598 822.987366,122.909416 
	C815.637146,139.906540 806.708923,155.834686 792.469482,168.416565 
	C786.825867,173.403137 781.858032,179.610489 778.039307,186.117065 
	C768.265808,202.769821 760.213013,220.410553 748.992615,235.463593 
	C752.203491,227.221878 755.548767,219.028900 758.564514,210.716385 
	C759.925110,206.966049 760.313965,202.861008 761.696716,199.121338 
	C764.568420,191.354599 767.809326,183.724365 770.815186,176.245224 
	C770.939392,176.438812 771.234375,176.898590 771.215149,176.868668 
	C773.841309,168.921936 776.552979,160.939911 779.107056,152.907745 
	C780.767029,147.687424 782.346863,142.431915 783.691345,137.123459 
	C785.265442,130.908157 786.304626,124.549179 788.072754,118.395302 
	C788.760132,116.002708 791.407043,114.171440 792.087769,111.779015 
	C793.093872,108.243309 793.141724,104.434937 793.641357,100.388237 
	C791.170166,99.847748 788.929871,99.765526 787.111877,98.847275 
	C785.236389,97.899940 782.140076,95.340622 782.377014,94.856323 
	C785.069580,89.354134 778.987244,87.508728 777.768738,83.253746 
	C775.050720,86.452797 772.777100,89.786888 770.932251,93.343414 
	C768.810913,97.432938 767.068848,101.719238 764.755249,106.816467 
	C764.427551,104.843727 764.270264,103.896515 764.600037,102.361320 
	C764.537048,98.218788 764.473999,94.076263 764.715149,89.258278 
	C768.879456,82.403114 773.043823,75.547958 777.208130,68.692795 
	C777.011475,68.528671 776.814758,68.364555 776.618042,68.200439 
	C774.316833,69.622185 772.015625,71.043938 768.445312,73.249771 
	C769.305786,70.225639 769.988953,68.851166 769.997498,67.472473 
	C770.004517,66.353043 769.486694,64.658546 768.683044,64.256996 
	C767.769775,63.800663 765.735352,64.038765 765.123474,64.764000 
	C757.596985,73.684731 748.616211,81.876762 749.836304,95.287132 
	C750.116028,98.362076 749.016235,101.538925 748.999329,104.671295 
	C748.983337,107.640450 749.035889,110.795364 750.000000,113.537483 
	C751.204468,116.962967 752.044556,119.967651 749.227234,123.382011 
	C749.030762,120.782394 749.095398,118.582230 748.621948,116.504669 
	C748.331604,115.230392 747.217041,114.143936 746.472595,112.973122 
	C745.580566,114.166145 744.164124,115.247246 743.881714,116.570404 
	C742.086609,124.980133 740.217285,133.396896 739.001465,141.901306 
	C737.666687,151.238098 737.052673,160.676437 736.041748,170.061615 
	C735.444580,175.605087 734.001709,181.148514 734.140137,186.661804 
	C734.455994,199.238235 733.618591,211.586960 728.834351,223.310349 
	C724.468628,234.008438 719.682007,244.539078 714.854492,255.039429 
	C714.190613,256.483582 712.221069,257.327484 710.898682,257.596283 
	C711.706055,253.554016 712.203979,249.418182 713.391174,245.490723 
	C715.323303,239.098999 718.435608,232.989258 719.732483,226.497330 
	C721.820068,216.047760 723.026733,205.405930 724.244812,194.803879 
	C725.295593,185.658112 725.911987,176.459183 726.532410,167.271057 
	C726.615112,166.046494 725.591980,164.747269 725.080933,163.482605 
	C725.415894,163.580490 725.750854,163.678375 726.085815,163.776260 
	C727.539124,154.012482 728.992493,144.248718 730.479858,134.255936 
	C731.223267,134.737137 731.883057,135.164261 733.489258,136.204010 
	C732.837463,122.991096 732.218628,110.447502 731.534241,96.574112 
	C727.877563,98.644173 725.843445,99.662842 723.947205,100.893867 
	C717.997131,104.756645 714.059387,102.865501 712.954895,95.652374 
	C712.370178,91.834137 711.557373,88.050835 710.788818,83.937126 
	C704.518677,88.458168 704.418152,80.432175 699.783020,80.050194 
	C699.001831,90.921593 698.221375,101.782661 697.440979,112.643730 
	C697.788757,112.692406 698.136536,112.741081 698.484314,112.789757 
	C699.138855,111.319977 699.793457,109.850204 700.447998,108.380424 
	C700.733643,108.475464 701.019348,108.570496 701.304993,108.665527 
	C700.520020,113.266655 699.735046,117.867783 698.797180,123.365166 
	C698.046265,121.702141 697.749695,121.045326 697.436523,120.351700 
	C696.558594,125.503441 695.707153,130.499664 694.855713,135.495880 
	C694.506287,135.480759 694.156860,135.465652 693.807434,135.450546 
	C693.383240,133.228256 692.959045,131.005981 692.628174,129.272644 
	C690.928711,132.560303 689.034058,136.225586 687.139465,139.890854 
	C686.064270,137.429337 685.710938,135.373810 686.134583,133.493332 
	C687.154480,128.966385 688.538208,124.521423 689.994446,119.219231 
	C690.465332,113.973221 690.936157,108.727211 691.407043,103.481201 
	C690.835754,103.429749 690.264465,103.378296 689.693176,103.326843 
	C689.459778,106.773483 689.378174,110.240868 688.911255,113.655571 
	C688.746399,114.861511 687.640198,115.938759 687.033081,116.162956 
	C687.087891,96.351410 691.671387,76.492638 686.702759,56.679562 
	C685.190491,63.677780 683.702637,70.563217 682.214783,77.448654 
	C680.729675,73.787033 680.343994,70.250000 679.052979,67.081917 
	C678.359680,65.380699 676.111084,64.313263 674.564270,62.959869 
	C673.377197,64.670975 671.449158,66.259148 671.140991,68.116089 
	C670.192444,73.832359 669.834534,79.648743 669.299805,85.431091 
	C668.277100,96.488647 666.849548,107.401192 669.617554,118.608475 
	C671.358215,125.655960 670.692444,133.297821 670.458862,140.171585 
	C668.416870,134.418640 666.239685,128.709122 664.373352,122.899757 
	C662.715149,117.738045 660.514160,112.534225 660.103821,107.229042 
	C658.912537,91.823837 658.484558,76.359070 657.821411,60.914906 
	C657.781006,59.974178 658.242249,58.988689 658.571411,58.059917 
	C659.372620,55.799034 660.411804,53.602066 660.967285,51.286324 
	C661.145752,50.542240 660.238708,48.893291 659.599731,48.760860 
	C658.802917,48.595695 657.374268,49.330826 656.909729,50.096584 
	C655.231140,52.863838 653.842529,55.806938 652.220154,58.922253 
	C651.671265,58.219410 651.281555,57.720371 651.284851,56.666840 
	C650.872498,56.045101 650.460083,55.423363 650.075256,54.062149 
	C651.028320,51.664921 651.981384,49.267696 653.245911,46.262054 
	C654.729553,45.223633 656.213257,44.185207 657.700684,43.144146 
	C651.322998,41.951305 645.306946,43.529022 639.607971,46.986755 
	C620.390808,58.646362 611.247986,76.782799 607.207397,97.984558 
	C604.560730,111.872353 605.935547,125.631248 609.682251,139.251266 
	C614.327454,156.137375 622.447815,171.476715 630.162598,187.030823 
	C635.594177,197.981522 640.670044,209.110367 645.790894,220.212158 
	C646.941711,222.707077 647.183716,225.689514 648.600220,227.979889 
	C651.904541,233.322754 656.962097,237.690140 657.228210,244.631958 
	C657.256470,245.368652 657.782410,246.267899 658.357300,246.773407 
	C663.197388,251.029358 663.977966,256.709259 663.966187,262.632660 
	C663.960754,265.382202 663.656799,268.131165 663.488159,270.880371 
	C663.913452,270.959259 664.338745,271.038177 664.763977,271.117065 
	C665.159912,269.688873 665.832886,268.275269 665.908936,266.830231 
	C666.663635,252.488373 665.901733,238.232941 661.388733,224.513687 
	C657.213867,211.822464 652.394104,199.343353 648.315674,186.369034 
	C651.437561,191.119843 654.559387,195.870667 657.681274,200.621490 
	C657.965576,200.493378 658.249878,200.365280 658.534180,200.237167 
	C655.818298,194.740067 653.102478,189.242950 650.386597,183.745850 
	C651.085449,183.456146 651.784302,183.166443 652.483154,182.876740 
	C655.625305,189.405762 659.782654,195.656570 661.666443,202.530472 
	C664.344727,212.304031 665.849609,222.481827 666.940430,232.585754 
	C668.161011,243.891129 668.354065,255.307205 669.023987,266.673340 
	C669.047546,267.073822 669.389465,267.455536 669.679016,268.039551 
	C670.202576,267.645721 670.761353,267.449219 670.863586,267.113647 
	C671.823792,263.961456 672.867798,260.821625 673.584045,257.610504 
	C677.691650,239.195618 679.890930,220.593246 676.973145,201.810394 
	C674.854736,188.173691 673.581360,174.539398 673.995239,160.748444 
	C674.054321,158.778397 674.011780,156.805267 674.654602,155.186066 
	C678.081665,166.722946 683.693970,178.117477 684.456787,189.827911 
	C685.820801,210.769409 689.149597,232.139191 681.177856,253.243179 
	C685.496094,250.899139 689.118958,248.932526 693.296631,246.664810 
	C692.283447,251.226654 691.220337,255.369553 690.515747,259.572571 
	C690.299988,260.859314 690.716187,263.193481 691.463196,263.491028 
	C692.752625,264.004639 695.190063,263.880951 695.969482,262.992645 
	C697.983643,260.696838 699.657043,257.971954 700.905640,255.168610 
	C702.360229,251.902634 703.218933,248.371246 704.336182,244.955032 
	C704.920227,245.050049 705.504333,245.145050 706.088440,245.240051 
	C705.732605,251.997009 705.376831,258.753967 704.960571,266.658112 
	C706.876465,264.891296 707.919739,263.929230 709.475342,262.826996 
	C709.590942,262.521759 709.706543,262.216522 709.893555,261.930695 
	C709.893555,261.930695 709.889404,261.856689 710.492554,261.904449 
M178.932205,315.928528 
	C178.991638,316.297028 179.051071,316.665497 179.110504,317.033997 
	C179.454010,316.733551 179.797516,316.433105 180.685410,315.905548 
	C180.683411,315.636230 180.681412,315.366943 180.679428,315.097626 
	C180.286087,315.219940 179.892761,315.342285 178.932205,315.928528 
M694.814209,304.632782 
	C694.680115,304.749695 694.545959,304.866608 694.411804,304.983521 
	C694.625916,304.957092 694.840088,304.930664 694.628235,305.460602 
	C695.491516,306.507263 696.354858,307.553925 697.646606,309.219330 
	C701.598999,315.827698 700.546448,321.970154 695.306091,327.953796 
	C694.427124,328.523407 693.548157,329.093018 691.966980,329.875305 
	C690.807251,330.198486 689.647461,330.521698 688.426331,330.788788 
	C688.426331,330.788788 688.362427,330.842010 687.453308,331.061401 
	C685.034302,330.775269 682.604858,330.555634 680.199768,330.180359 
	C678.508972,329.916534 676.851196,329.440887 675.245361,329.100861 
	C675.245361,329.100861 675.322937,329.111145 676.164246,328.750763 
	C675.142273,327.417572 674.120300,326.084381 673.089417,324.194061 
	C672.786987,323.778290 672.484558,323.362518 672.132080,322.156433 
	C671.516296,319.137390 670.900513,316.118317 670.859680,313.047516 
	C671.159485,312.331573 671.459290,311.615631 671.896973,310.119537 
	C672.629761,309.509369 673.362549,308.899200 674.054260,308.031555 
	C674.054260,308.031555 674.243103,308.253326 674.243103,308.253326 
	C674.243103,308.253326 674.035645,308.175476 673.570190,307.548035 
	C674.208008,306.305389 674.845825,305.062744 676.253784,303.725311 
	C680.222534,302.289124 684.191284,300.852936 688.658142,299.236511 
	C683.284729,297.686798 678.992981,299.584869 674.211914,302.662201 
	C668.797791,307.844574 665.879333,313.975342 667.505920,322.332458 
	C664.077271,321.330475 661.315552,320.379028 658.484558,319.729980 
	C654.256531,318.760620 651.707947,317.069519 654.190552,312.251404 
	C654.571899,311.511322 654.243835,310.405640 654.243835,309.469025 
	C649.693970,318.117920 649.329651,319.095215 658.337524,321.433319 
	C660.731750,322.054749 663.073669,322.950439 665.348999,323.930634 
	C666.776306,324.545532 668.203186,325.371643 669.332520,326.422852 
	C671.468018,328.410522 673.388916,330.628662 675.904785,333.232208 
	C682.339111,336.784119 688.774658,337.523254 695.845703,333.111847 
	C696.951782,332.130157 698.057922,331.148468 699.773865,329.925446 
	C700.129578,329.249542 700.485291,328.573639 700.841064,327.897705 
	C700.431824,327.917786 700.022644,327.937866 698.897949,327.211884 
	C701.958252,320.628204 703.701538,314.092773 697.942993,307.220154 
	C696.960571,306.482025 695.978149,305.743866 694.814209,304.632782 
M176.103668,317.933746 
	C159.694504,329.397644 141.058350,334.192657 121.491180,333.769653 
	C90.413940,333.097748 65.020317,319.961945 46.222816,295.072205 
	C29.681400,273.169769 23.442970,248.220245 26.008698,220.997330 
	C28.748930,191.922882 40.478573,167.638412 64.510658,150.220825 
	C88.160461,133.080276 119.804977,132.089417 142.540771,147.914597 
	C147.826294,151.593567 152.091888,156.737839 156.714676,161.102051 
	C156.714676,154.725098 156.714676,148.086594 156.714676,142.862732 
	C152.253159,142.347885 148.079865,142.640671 144.500824,141.321335 
	C127.617958,135.097763 110.601990,131.352509 92.367889,133.774475 
	C66.916718,137.155075 45.737896,148.109909 29.972830,168.302505 
	C9.587859,194.412476 4.119895,224.230148 10.673586,256.344086 
	C17.114170,287.903778 33.590721,312.442902 62.807709,327.182495 
	C85.181412,338.469696 109.116005,340.936127 133.709549,337.523224 
	C150.105896,335.247864 165.208649,329.676727 178.349426,317.987488 
	C178.194153,317.638336 178.038895,317.289185 177.883636,316.940033 
	C177.518906,317.221985 177.154190,317.503937 176.103668,317.933746 
M503.209473,246.059952 
	C504.567688,257.245117 507.920349,267.624054 514.489197,276.989746 
	C531.250366,300.887238 568.980042,305.671478 594.393066,293.001343 
	C629.000244,275.747253 632.580444,228.415344 614.554016,202.100845 
	C604.367554,187.230896 589.672302,179.902893 572.109375,178.428284 
	C549.014832,176.489227 528.338806,181.596451 514.009033,201.602646 
	C504.722290,214.568130 502.199677,229.485397 503.209473,246.059952 
M188.548096,195.971222 
	C179.260422,217.250549 170.299194,238.680710 160.563461,259.753021 
	C154.659439,272.531830 151.516464,286.814087 140.856796,297.604462 
	C145.787384,297.604462 150.380554,297.604462 155.951691,297.604462 
	C150.837036,293.383362 152.168060,289.243744 154.125702,284.958893 
	C156.536438,279.682220 158.957184,274.397369 161.033936,268.985718 
	C162.237793,265.848694 163.982346,264.874481 167.348770,264.917877 
	C183.012329,265.119873 198.680939,265.100372 214.345276,264.931335 
	C217.602493,264.896210 219.507629,265.575287 220.615921,268.914307 
	C222.074295,273.308014 223.959534,277.587189 225.983215,281.759430 
	C228.660538,287.279327 230.486130,292.572144 223.581436,297.650452 
	C233.886337,297.650452 242.852982,297.650452 251.180313,297.650452 
	C248.294785,293.202881 244.656769,289.060883 242.632996,284.241089 
	C228.257767,250.005112 214.214508,215.629745 200.056778,181.302383 
	C199.456985,179.848145 198.771301,178.429337 197.450134,175.492371 
	C194.204529,183.010910 191.553360,189.152451 188.548096,195.971222 
M430.149689,296.395508 
	C450.970490,303.267426 470.753326,298.721558 490.188782,290.818695 
	C491.335449,290.352448 492.763611,288.940002 492.868805,287.852600 
	C493.210144,284.323792 492.996429,280.741302 492.996429,277.179504 
	C492.390259,276.815948 491.784119,276.452362 491.177948,276.088806 
	C490.820221,277.001343 490.643555,278.048798 490.078644,278.806946 
	C471.432617,303.830048 431.046448,301.390289 415.966644,274.164093 
	C406.597809,257.248871 405.694916,239.089661 409.633240,220.527176 
	C412.412567,207.427551 418.287201,196.042053 429.715942,188.411560 
	C447.438965,176.578644 473.865601,180.984863 488.979736,198.013901 
	C489.890839,199.040421 490.871307,200.005417 492.809296,202.036301 
	C492.809296,197.534409 493.122955,194.395813 492.682800,191.366776 
	C492.447205,189.745239 491.268250,187.523544 489.911774,186.913116 
	C470.580688,178.213821 450.595306,174.861526 429.907990,181.316544 
	C407.446259,188.325195 393.294373,208.204361 391.603027,234.341736 
	C389.688843,263.922760 403.893616,287.133759 430.149689,296.395508 
M272.193329,223.499939 
	C272.193329,241.315857 272.281097,259.132416 272.150513,276.947388 
	C272.097595,284.159424 274.152618,291.960876 266.298065,297.708618 
	C290.825592,297.708618 314.217865,297.708618 337.643005,297.708618 
	C338.555756,294.454895 339.391174,291.476807 340.226593,288.498749 
	C333.783081,294.322144 326.307709,294.707001 318.503204,294.454254 
	C310.519409,294.195709 302.520721,294.396973 294.528534,294.396973 
	C292.115723,294.396973 289.702911,294.396973 287.011536,294.396973 
	C287.011536,291.784668 287.011536,289.974670 287.011536,288.164673 
	C287.011536,257.361450 287.066101,226.558075 286.962799,195.755219 
	C286.943512,190.002930 286.767761,184.409912 293.620850,180.279999 
	C283.799652,180.279999 275.566589,180.279999 266.197235,180.279999 
	C271.591492,183.975052 272.341003,188.483994 272.246002,193.529251 
	C272.064240,203.183060 272.193298,212.842697 272.193329,223.499939 
M357.708954,190.261307 
	C357.758087,218.557175 357.872040,246.853195 357.814392,275.148834 
	C357.798340,283.031769 359.729034,291.491150 351.710541,297.563416 
	C360.703918,297.563416 368.863617,297.563416 378.781921,297.563416 
	C371.984741,293.532990 371.918091,288.329956 371.942200,282.829742 
	C372.066956,254.365082 371.987488,225.899597 372.010223,197.434433 
	C372.015167,191.253174 370.670105,184.653641 378.463409,180.273575 
	C368.714874,180.273575 360.557007,180.273575 353.016418,180.273575 
	C354.512634,183.401337 355.961273,186.429565 357.708954,190.261307 
M414.388611,334.931915 
	C416.536224,330.631622 418.465790,326.199188 420.948730,322.102081 
	C421.827362,320.652313 424.040985,319.180969 425.670197,319.152496 
	C435.651672,318.977905 445.640259,319.247742 455.626770,319.278320 
	C457.104706,319.282867 458.584106,318.803925 460.062805,318.548676 
	C459.991821,317.886261 459.920807,317.223877 459.849792,316.561462 
	C447.997406,316.561462 436.144989,316.561462 424.177582,316.561462 
	C424.571655,313.679810 424.833496,311.765137 425.095337,309.850464 
	C424.523163,309.534302 423.950958,309.218170 423.378784,308.902008 
	C423.051697,309.669312 422.589264,310.407990 422.420105,311.208679 
	C421.529175,315.426239 418.782135,316.362579 414.792419,316.358276 
	C404.820770,316.347534 394.847229,316.693756 384.878235,317.014893 
	C383.227570,317.068054 381.596130,317.717712 379.955841,318.091705 
	C380.063232,318.575256 380.170624,319.058777 380.278015,319.542297 
	C392.994171,319.542297 405.710358,319.542297 418.606384,319.542297 
	C408.799591,340.447754 397.171021,360.420502 390.435303,382.472198 
	C390.967896,382.709747 391.500519,382.947296 392.033112,383.184845 
	C399.363190,367.318787 406.693268,351.452728 414.388611,334.931915 
M367.975739,343.924774 
	C367.028717,342.306580 365.861206,340.773254 365.196472,339.046387 
	C364.526428,337.305664 364.720276,333.975555 363.903839,333.762451 
	C360.082062,332.764984 355.632660,331.306305 352.162445,332.402405 
	C344.022095,334.973633 338.010162,340.931824 333.566864,348.212463 
	C332.784210,349.494873 333.134766,351.468842 332.962006,353.123413 
	C334.615448,352.968445 336.630829,353.368500 337.861816,352.565765 
	C344.395874,348.304688 350.712799,343.712097 357.153290,339.305023 
	C358.680786,338.259827 360.393951,337.485992 362.372345,336.393738 
	C362.020782,345.453339 364.643768,347.981018 372.263916,346.702179 
	C375.356659,346.183136 378.457672,345.675110 381.510803,344.970734 
	C383.822876,344.437317 386.064941,343.600433 388.338196,342.898621 
	C388.185059,342.273529 388.031952,341.648407 387.878845,341.023315 
	C381.525299,341.997101 375.171722,342.970856 367.975739,343.924774 
M706.034668,297.533051 
	C698.191467,288.314087 688.075073,289.991852 677.957397,291.675720 
	C675.661987,285.712830 668.439026,283.173767 664.661377,286.852631 
	C666.979248,289.015869 673.137573,286.327637 672.277283,293.798767 
	C675.458984,293.558563 678.867126,293.677002 682.097839,292.976685 
	C688.231934,291.647003 699.853699,295.717987 704.051941,300.385071 
	C705.947388,302.492126 708.860779,303.955078 711.587524,304.973358 
	C714.941467,306.225891 717.739136,307.227509 717.130310,311.727966 
	C716.939026,313.142212 718.032349,314.730255 718.723511,316.793335 
	C720.534180,314.052277 721.933594,312.333801 722.885254,310.395508 
	C724.180603,307.757263 720.758179,303.999756 716.623535,302.939789 
	C712.961914,302.001099 708.386841,302.818146 706.034668,297.533051 
M612.285522,343.940155 
	C613.444153,343.409576 614.602722,342.878967 615.761292,342.348389 
	C615.592163,341.845032 615.423035,341.341675 615.253845,340.838318 
	C612.414917,341.300781 609.243530,341.113342 606.805969,342.360382 
	C601.652832,344.996674 598.071899,343.178101 594.669189,339.447540 
	C596.549072,336.935547 598.428650,334.424011 600.308167,331.912506 
	C599.659790,331.429413 599.011414,330.946320 598.363037,330.463226 
	C596.119202,333.344727 592.728271,335.985840 592.055359,339.196564 
	C591.641785,341.169922 595.384644,344.014465 596.994263,346.118805 
	C594.067627,349.899170 590.835327,353.821442 587.958740,357.989258 
	C587.332825,358.896118 587.479431,361.444611 588.156189,361.889496 
	C589.246216,362.606171 591.830322,362.871613 592.460205,362.158722 
	C595.554199,358.656921 598.901184,355.079437 600.777039,350.907349 
	C601.995789,348.196808 602.858643,346.331909 605.822205,345.714386 
	C607.749451,345.312805 609.610046,344.591644 612.285522,343.940155 
M561.226807,349.745575 
	C571.544189,343.812469 571.544189,343.812469 571.471802,341.151001 
	C565.044556,344.193481 558.716370,347.434631 552.160522,350.119934 
	C550.519653,350.792023 546.599121,350.094025 546.386475,349.306946 
	C545.605225,346.415283 546.126465,343.815735 550.086487,342.562927 
	C553.397095,341.515533 556.306824,338.996185 559.148010,336.808960 
	C559.889587,336.238068 560.269531,334.134613 559.795288,333.358612 
	C559.357239,332.641815 557.479187,332.371216 556.360168,332.578278 
	C551.010742,333.568176 543.500671,341.951904 542.915039,347.331879 
	C542.427368,351.811798 544.761047,354.578796 549.321655,353.813446 
	C553.163147,353.168762 556.805908,351.340210 561.226807,349.745575 
M209.774399,352.222107 
	C217.217239,349.379791 224.742264,346.699005 231.201035,341.822144 
	C219.299530,343.523773 209.420410,351.688080 196.414612,352.086304 
	C197.949997,343.404388 202.474655,337.992462 208.881180,333.769104 
	C209.965363,335.040649 210.793610,336.012054 211.621857,336.983459 
	C212.084869,336.781616 212.547867,336.579773 213.010864,336.377930 
	C212.515244,334.717560 212.470535,332.568542 211.375336,331.557922 
	C210.560135,330.805664 208.075104,330.988800 206.866867,331.683105 
	C200.539261,335.319092 196.487778,341.076141 194.159027,347.772217 
	C192.481125,352.596893 195.255539,355.534912 200.469788,354.923981 
	C203.384857,354.582428 206.198822,353.377991 209.774399,352.222107 
M290.429413,350.768585 
	C292.674377,354.476410 296.162476,354.827118 299.561035,353.311584 
	C306.033661,350.425201 312.306946,347.086365 318.607361,343.827789 
	C319.229340,343.506073 319.465668,342.438660 319.880981,341.717346 
	C316.780670,342.054688 314.356781,343.285248 311.894806,344.434204 
	C307.263916,346.595245 302.666412,348.847717 297.927399,350.743011 
	C296.779144,351.202271 294.369324,350.878052 293.900055,350.096863 
	C293.231049,348.983246 293.321472,346.831970 293.999573,345.645020 
	C294.762024,344.310364 296.397736,343.168396 297.900696,342.620361 
	C302.414886,340.974335 306.250763,338.757904 308.513733,332.238800 
	C305.226105,332.847748 302.552429,332.644226 300.760101,333.803467 
	C294.932800,337.572205 290.010895,342.215942 290.429413,350.768585 
M521.538330,344.079132 
	C523.039307,343.633270 524.540283,343.187439 526.041260,342.741577 
	C525.937195,342.242371 525.833130,341.743134 525.729065,341.243927 
	C520.031372,341.521393 514.333679,341.798828 508.025665,342.106018 
	C508.765015,338.974152 509.223633,337.031433 509.682220,335.088715 
	C509.250061,334.721619 508.817871,334.354523 508.385681,333.987427 
	C503.385712,338.697693 498.385742,343.407928 493.385773,348.118195 
	C493.067261,347.945801 492.748718,347.773376 492.430206,347.600983 
	C494.017212,342.653473 495.604187,337.705963 497.191162,332.758453 
	C496.372864,332.516876 495.554535,332.275269 494.736237,332.033691 
	C493.061066,337.238953 491.251068,342.407410 489.813965,347.677612 
	C489.490784,348.862793 490.469757,350.403076 490.849304,351.779846 
	C492.342102,351.336487 494.150757,351.282623 495.268341,350.376495 
	C498.576416,347.694183 501.611694,344.675385 504.732086,341.808014 
	C508.650635,345.508759 512.784424,346.102264 521.538330,344.079132 
M265.018341,335.236420 
	C265.549866,332.464233 264.209198,332.251404 262.335754,333.491486 
	C260.780884,334.520630 259.476959,335.928986 257.255646,337.876038 
	C257.679260,335.232666 257.923096,333.711243 258.246307,331.694427 
	C252.611923,334.997589 246.603378,347.046539 248.026199,353.774780 
	C252.129974,349.341492 255.548752,345.648224 258.967346,341.955139 
	C263.201569,346.604858 270.220642,346.339020 273.034637,341.275970 
	C269.541168,341.579742 266.233948,341.867340 261.807007,342.252289 
	C263.091736,339.462036 263.884460,337.740356 265.018341,335.236420 
M444.393188,347.888794 
	C444.584045,344.599915 444.774872,341.311035 444.965729,338.022156 
	C441.545441,340.937561 439.524414,344.548340 441.213196,348.365082 
	C442.811096,351.976288 446.578979,352.472443 450.254272,351.252716 
	C456.646729,349.131256 463.028900,346.971802 469.353363,344.658844 
	C470.480591,344.246613 471.307861,343.014343 472.273621,342.160706 
	C471.994446,341.700226 471.715271,341.239746 471.436066,340.779266 
	C467.424286,342.414398 463.516846,344.420563 459.372925,345.585846 
	C454.737000,346.889435 449.886780,347.430908 444.393188,347.888794 
M689.866760,34.240623 
	C691.797546,20.131174 691.797546,20.131174 688.135376,15.580384 
	C687.516235,24.754478 686.897034,33.928574 686.277893,43.102665 
	C686.745850,43.136967 687.213745,43.171265 687.681702,43.205566 
	C688.331726,40.485531 688.981689,37.765491 689.866760,34.240623 
M784.555969,62.125004 
	C788.691528,60.244118 792.827087,58.363232 796.962646,56.482349 
	C796.697266,55.947849 796.431885,55.413353 796.166504,54.878857 
	C791.116211,55.401836 787.092529,57.753593 784.555969,62.125004 
M707.865295,53.845226 
	C707.892517,54.175278 707.868774,54.521152 707.964478,54.829990 
	C708.030884,55.044182 708.261902,55.207375 708.926331,55.992161 
	C709.827454,50.455757 710.639099,45.469246 711.450745,40.482731 
	C710.872192,40.389061 710.293640,40.295391 709.715088,40.201721 
	C709.096802,44.469578 708.478516,48.737434 707.865295,53.845226 
z"/>
<path fill="#F18785" opacity="1.000000" stroke="none" 
	d="
M671.106201,140.673035 
	C670.692444,133.297821 671.358215,125.655960 669.617554,118.608475 
	C666.849548,107.401192 668.277100,96.488647 669.299805,85.431091 
	C669.834534,79.648743 670.192444,73.832359 671.140991,68.116089 
	C671.449158,66.259148 673.377197,64.670975 674.564270,62.959862 
	C676.111084,64.313263 678.359680,65.380699 679.052979,67.081917 
	C680.343994,70.250000 680.729675,73.787033 682.214783,77.448654 
	C683.702637,70.563217 685.190491,63.677780 686.702759,56.679562 
	C691.671387,76.492638 687.087891,96.351410 686.954712,116.974960 
	C687.842590,118.539101 688.808838,119.291245 689.775146,120.043381 
	C688.538208,124.521423 687.154480,128.966385 686.134583,133.493332 
	C685.710938,135.373810 686.064270,137.429337 687.139465,139.890854 
	C689.034058,136.225586 690.928711,132.560303 692.628174,129.272644 
	C692.959045,131.005981 693.383240,133.228256 693.807434,135.450546 
	C694.156860,135.465652 694.506287,135.480759 694.855713,135.495880 
	C695.707153,130.499664 696.558594,125.503441 697.436523,120.351700 
	C697.749695,121.045326 698.046265,121.702141 698.797180,123.365166 
	C699.735046,117.867783 700.520020,113.266655 701.304993,108.665527 
	C701.019348,108.570496 700.733643,108.475464 700.447998,108.380424 
	C699.793457,109.850204 699.138855,111.319977 698.484314,112.789757 
	C698.136536,112.741081 697.788757,112.692406 697.440979,112.643730 
	C698.221375,101.782661 699.001831,90.921593 699.783020,80.050194 
	C704.418152,80.432175 704.518677,88.458168 710.788818,83.937126 
	C711.557373,88.050835 712.370178,91.834137 712.954895,95.652374 
	C714.059387,102.865501 717.997131,104.756645 723.947205,100.893867 
	C725.843445,99.662842 727.877563,98.644173 731.534241,96.574112 
	C732.218628,110.447502 732.837463,122.991096 733.489258,136.204010 
	C731.883057,135.164261 731.223267,134.737137 730.479858,134.255936 
	C728.992493,144.248718 727.539124,154.012482 726.085815,163.776260 
	C725.750854,163.678375 725.415894,163.580490 725.080933,163.482605 
	C725.591980,164.747269 726.615112,166.046494 726.532410,167.271057 
	C725.911987,176.459183 725.295593,185.658112 724.244812,194.803879 
	C723.026733,205.405930 721.820068,216.047760 719.732483,226.497330 
	C718.435608,232.989258 715.323303,239.098999 713.391174,245.490723 
	C712.203979,249.418182 711.706055,253.554016 710.914307,258.040009 
	C710.929993,258.483734 710.966370,258.409180 710.643433,258.622620 
	C710.199097,259.592651 710.077759,260.349243 709.909424,261.290863 
	C709.862488,261.475861 709.889404,261.856689 709.889404,261.856689 
	C709.889404,261.856689 709.893555,261.930695 709.650757,262.035706 
	C709.176147,262.371307 709.027832,262.646759 708.962952,262.967163 
	C707.919739,263.929230 706.876465,264.891296 704.960571,266.658112 
	C705.376831,258.753967 705.732605,251.997009 706.088440,245.240051 
	C705.504333,245.145050 704.920227,245.050049 704.336182,244.955032 
	C703.218933,248.371246 702.360229,251.902634 700.905640,255.168610 
	C699.657043,257.971954 697.983643,260.696838 695.969482,262.992645 
	C695.190063,263.880951 692.752625,264.004639 691.463196,263.491028 
	C690.716187,263.193481 690.299988,260.859314 690.515747,259.572571 
	C691.220337,255.369553 692.283447,251.226654 693.296631,246.664810 
	C689.118958,248.932526 685.496094,250.899139 681.177856,253.243179 
	C689.149597,232.139191 685.820801,210.769409 684.456787,189.827911 
	C683.693970,178.117477 678.081665,166.722946 674.283447,154.646362 
	C672.976929,149.628784 672.041565,145.150909 671.106201,140.673035 
M680.856262,95.100128 
	C680.625610,91.275337 680.394958,87.450554 680.164307,83.625763 
	C679.432678,83.622597 678.700989,83.619431 677.969299,83.616264 
	C677.424683,92.481949 676.880066,101.347641 676.335388,110.213326 
	C676.836487,110.262978 677.337524,110.312630 677.838562,110.362282 
	C678.756653,105.559227 679.674744,100.756180 680.856262,95.100128 
M693.027771,180.457733 
	C692.705139,183.882645 692.382507,187.307541 692.059814,190.732437 
	C692.780579,190.765015 693.501404,190.797577 694.222168,190.830139 
	C694.945496,181.714691 695.668762,172.599243 696.392090,163.483795 
	C695.782043,163.403610 695.172058,163.323425 694.562073,163.243240 
	C694.276428,165.552643 693.918213,167.855911 693.722961,170.172928 
	C693.459229,173.301941 693.320862,176.441513 693.027771,180.457733 
M696.086792,155.600510 
	C696.684204,154.524200 697.771423,153.460129 697.798645,152.369583 
	C697.961060,145.859116 697.878967,139.342545 697.878967,132.828033 
	C696.673523,141.660294 693.631226,150.343933 696.062439,159.366104 
	C696.062439,158.383682 696.062439,157.401276 696.086792,155.600510 
z"/>
<path fill="#F2664B" opacity="1.000000" stroke="none" 
	d="
M710.966431,258.409180 
	C710.966370,258.409180 710.929993,258.483734 710.893066,258.466492 
	C712.221069,257.327484 714.190613,256.483582 714.854492,255.039429 
	C719.682007,244.539078 724.468628,234.008438 728.834351,223.310349 
	C733.618591,211.586960 734.455994,199.238235 734.140137,186.661804 
	C734.001709,181.148514 735.444580,175.605087 736.041748,170.061615 
	C737.052673,160.676437 737.666687,151.238098 739.001465,141.901306 
	C740.217285,133.396896 742.086609,124.980133 743.881714,116.570404 
	C744.164124,115.247246 745.580566,114.166145 746.472534,112.973129 
	C747.217041,114.143936 748.331604,115.230392 748.621948,116.504669 
	C749.095398,118.582230 749.030762,120.782394 749.227234,123.382011 
	C752.044556,119.967651 751.204468,116.962967 750.000000,113.537483 
	C749.035889,110.795364 748.983337,107.640450 748.999329,104.671295 
	C749.016235,101.538925 750.116028,98.362076 749.836304,95.287132 
	C748.616211,81.876762 757.596985,73.684731 765.123474,64.764000 
	C765.735352,64.038765 767.769775,63.800663 768.683044,64.256996 
	C769.486694,64.658546 770.004517,66.353043 769.997498,67.472473 
	C769.988953,68.851166 769.305786,70.225639 768.445312,73.249771 
	C772.015625,71.043938 774.316833,69.622185 776.618042,68.200439 
	C776.814758,68.364555 777.011475,68.528671 777.208130,68.692795 
	C773.043823,75.547958 768.879456,82.403114 764.353271,89.911026 
	C763.221863,95.498405 763.676025,100.846786 759.145874,104.859955 
	C759.145569,105.713951 759.262268,106.257561 759.379028,106.801170 
	C759.621094,106.233719 759.863098,105.666260 760.371704,105.226624 
	C763.927917,107.631912 762.442932,103.011688 764.112915,102.949303 
	C764.270264,103.896515 764.427551,104.843727 764.755249,106.816467 
	C767.068848,101.719238 768.810913,97.432938 770.932251,93.343414 
	C772.777100,89.786888 775.050720,86.452797 777.768738,83.253746 
	C778.987244,87.508728 785.069580,89.354134 782.377014,94.856323 
	C782.140076,95.340622 785.236389,97.899940 787.111877,98.847275 
	C788.929871,99.765526 791.170166,99.847748 793.641357,100.388237 
	C793.141724,104.434937 793.093872,108.243309 792.087769,111.779015 
	C791.407043,114.171440 788.760132,116.002708 788.072754,118.395302 
	C786.304626,124.549179 785.265442,130.908157 783.691345,137.123459 
	C782.346863,142.431915 780.767029,147.687424 779.107056,152.907745 
	C776.552979,160.939911 773.841309,168.921936 771.215149,176.868668 
	C771.234375,176.898590 770.939392,176.438812 770.815186,176.245224 
	C767.809326,183.724365 764.568420,191.354599 761.696716,199.121338 
	C760.313965,202.861008 759.925110,206.966049 758.564514,210.716385 
	C755.548767,219.028900 752.203491,227.221878 749.173584,236.169403 
	C747.915894,239.061127 746.477173,241.247025 744.721191,243.682892 
	C744.275513,244.656097 744.147156,245.379349 744.004761,246.054291 
	C743.990662,246.005981 744.087280,245.977814 744.087280,245.977814 
	C740.117737,251.063965 736.104004,256.116425 732.192078,261.246552 
	C728.818909,265.670288 725.620300,270.227936 722.211243,274.623016 
	C721.381592,275.692627 720.028748,276.356354 718.068604,276.520752 
	C720.508911,272.258881 722.949280,267.997040 725.389587,263.735168 
	C720.081116,266.196075 718.511230,273.329437 710.006653,272.808441 
	C712.776367,268.696167 714.999207,265.395813 717.520386,261.565308 
	C717.775635,260.776978 717.732544,260.518799 717.689453,260.260620 
	C717.388916,260.435120 717.088318,260.609619 716.787720,260.784058 
	C715.125916,260.883453 713.464111,260.982849 711.395264,261.038269 
	C710.988159,260.994293 711.032349,261.044220 711.166138,260.554047 
	C711.188721,259.512299 711.077576,258.960724 710.966431,258.409180 
M756.042786,146.498550 
	C758.106323,138.910446 756.391541,131.600098 753.871216,124.219368 
	C751.153748,140.353256 748.436279,156.487152 745.517212,173.817719 
	C753.001343,165.556870 755.234253,156.728271 756.042786,146.498550 
M746.362488,131.800293 
	C745.249939,136.750870 744.137451,141.701462 743.024902,146.652039 
	C746.850037,142.339081 748.317932,134.914536 746.362488,131.800293 
M759.206360,86.675987 
	C761.071716,83.757904 762.937012,80.839821 764.802368,77.921738 
	C764.150940,77.526245 763.499451,77.130760 762.847961,76.735268 
	C760.537537,80.614616 758.227051,84.493965 755.916626,88.373306 
	C756.586914,88.942039 757.257202,89.510780 757.927551,90.079514 
	C758.234314,89.153328 758.541138,88.227142 759.206360,86.675987 
z"/>
<path fill="#F1A96B" opacity="1.000000" stroke="none" 
	d="
M745.038452,243.432922 
	C746.477173,241.247025 747.915894,239.061127 749.408447,236.700348 
	C760.213013,220.410553 768.265808,202.769821 778.039307,186.117065 
	C781.858032,179.610489 786.825867,173.403137 792.469482,168.416565 
	C806.708923,155.834686 815.637146,139.906540 822.987366,122.909416 
	C826.356018,115.119598 828.722778,106.896507 831.543884,98.869904 
	C831.114746,98.662964 830.685547,98.456024 830.256409,98.249092 
	C831.686401,98.004135 833.116455,97.759186 834.994873,97.437431 
	C834.994873,102.058731 834.994873,106.673164 834.994873,111.847061 
	C836.029114,110.321411 836.742188,109.269516 837.364136,108.351959 
	C840.960999,115.395576 837.120422,122.539848 837.885803,129.173599 
	C838.775818,136.888092 835.490845,142.688828 833.811523,149.296005 
	C833.478638,150.605774 833.955750,152.121414 834.618652,153.856308 
	C835.178040,154.170502 835.535156,154.484848 835.535156,154.484848 
	C833.035950,159.390808 832.243225,164.512604 831.411438,170.011841 
	C830.406799,176.653610 825.838196,183.253220 821.440857,188.779953 
	C812.676941,199.794800 803.115601,210.205795 791.144714,218.010345 
	C790.061035,218.716827 789.198486,219.762436 787.784180,221.116791 
	C787.458435,222.120728 787.581848,222.658447 787.705200,223.196152 
	C788.216187,222.879166 788.727234,222.562195 789.238220,222.245224 
	C802.236572,215.987640 813.394409,207.364899 822.353699,195.916885 
	C822.733459,196.242325 823.113159,196.567749 823.492920,196.893188 
	C821.153381,199.901855 819.265991,203.466995 816.384338,205.808472 
	C809.450256,211.442749 802.158386,216.659836 794.805420,221.748260 
	C788.562500,226.068481 782.061035,230.020096 775.594910,234.006577 
	C774.718811,234.546707 773.382141,234.339722 772.049744,233.571243 
	C758.324036,245.444260 749.047546,261.214966 741.564453,278.919617 
	C741.227295,280.018677 741.077698,280.524109 740.928101,281.029510 
	C739.187866,282.515503 737.447632,284.001465 735.707397,285.487457 
	C735.136414,285.314453 734.565369,285.141479 733.994385,284.968506 
	C733.994385,283.364716 733.617004,281.648926 734.054565,280.175018 
	C737.371399,269.002289 740.847900,257.876953 744.180969,246.357330 
	C744.087280,245.977814 743.990662,246.005981 744.383301,245.905151 
	C744.863464,245.013840 744.950989,244.223389 745.038452,243.432922 
M773.633179,230.386368 
	C773.364624,231.025635 773.096069,231.664917 772.827515,232.304199 
	C773.121948,232.538513 773.416382,232.772827 773.710815,233.007141 
	C777.671570,230.019775 781.632263,227.032410 785.593018,224.045044 
	C785.173157,223.489960 784.753296,222.934860 784.333496,222.379776 
	C780.971558,224.822357 777.609619,227.264923 773.633179,230.386368 
z"/>
<path fill="#F35641" opacity="1.000000" stroke="none" 
	d="
M670.782532,140.422302 
	C672.041565,145.150909 672.976929,149.628784 673.964294,154.470108 
	C674.011780,156.805267 674.054321,158.778397 673.995239,160.748444 
	C673.581360,174.539398 674.854736,188.173691 676.973145,201.810394 
	C679.890930,220.593246 677.691650,239.195618 673.584045,257.610504 
	C672.867798,260.821625 671.823792,263.961456 670.863586,267.113647 
	C670.761353,267.449219 670.202576,267.645721 669.679016,268.039551 
	C669.389465,267.455536 669.047546,267.073822 669.023987,266.673340 
	C668.354065,255.307205 668.161011,243.891129 666.940430,232.585754 
	C665.849609,222.481827 664.344727,212.304031 661.666443,202.530472 
	C659.782654,195.656570 655.625305,189.405762 652.483154,182.876740 
	C651.784302,183.166443 651.085449,183.456146 650.386597,183.745850 
	C653.102478,189.242950 655.818298,194.740067 658.534180,200.237167 
	C658.249878,200.365280 657.965576,200.493378 657.681274,200.621490 
	C654.559387,195.870667 651.437561,191.119843 647.860718,186.326935 
	C646.725891,183.771225 646.045959,181.257614 645.656799,178.909439 
	C646.851562,180.052979 647.755615,181.031067 648.659607,182.009171 
	C649.049072,181.784927 649.438477,181.560699 649.827881,181.336472 
	C649.189453,179.639206 648.834473,177.757156 647.867554,176.273987 
	C640.346802,164.737305 636.400452,151.740433 632.622681,138.723083 
	C630.251465,130.552216 629.581299,123.087517 632.724304,113.299255 
	C634.680420,107.207352 634.253052,100.298370 637.738892,94.459389 
	C637.817261,94.328102 637.799011,94.134888 637.812073,93.969475 
	C638.285706,87.985413 637.574646,82.039009 641.916138,76.566048 
	C644.453186,73.367729 644.628540,68.295990 645.984009,63.743401 
	C647.698486,61.353626 649.295166,59.287495 650.891846,57.221344 
	C651.281555,57.720371 651.671265,58.219410 652.220154,58.922253 
	C653.842529,55.806938 655.231140,52.863838 656.909729,50.096584 
	C657.374268,49.330826 658.802917,48.595695 659.599731,48.760860 
	C660.238708,48.893291 661.145752,50.542240 660.967285,51.286324 
	C660.411804,53.602066 659.372620,55.799034 658.571411,58.059917 
	C658.242249,58.988689 657.781006,59.974178 657.821411,60.914906 
	C658.484558,76.359070 658.912537,91.823837 660.103821,107.229042 
	C660.514160,112.534225 662.715149,117.738045 664.373352,122.899757 
	C666.239685,128.709122 668.416870,134.418640 670.782532,140.422302 
z"/>
<path fill="#F14A48" opacity="1.000000" stroke="none" 
	d="
M177.835754,318.509857 
	C165.208649,329.676727 150.105896,335.247864 133.709549,337.523224 
	C109.116005,340.936127 85.181412,338.469696 62.807709,327.182495 
	C33.590721,312.442902 17.114170,287.903778 10.673586,256.344086 
	C4.119895,224.230148 9.587859,194.412476 29.972830,168.302505 
	C45.737896,148.109909 66.916718,137.155075 92.367889,133.774475 
	C110.601990,131.352509 127.617958,135.097763 144.500824,141.321335 
	C148.079865,142.640671 152.253159,142.347885 156.714676,142.862732 
	C156.714676,148.086594 156.714676,154.725098 156.714676,161.102051 
	C152.091888,156.737839 147.826294,151.593567 142.540771,147.914597 
	C119.804977,132.089417 88.160461,133.080276 64.510658,150.220825 
	C40.478573,167.638412 28.748930,191.922882 26.008698,220.997330 
	C23.442970,248.220245 29.681400,273.169769 46.222816,295.072205 
	C65.020317,319.961945 90.413940,333.097748 121.491180,333.769653 
	C141.058350,334.192657 159.694504,329.397644 176.705048,318.045288 
	C177.482864,318.274506 177.659317,318.392181 177.835754,318.509857 
z"/>
<path fill="#F24B48" opacity="1.000000" stroke="none" 
	d="
M503.167175,245.598618 
	C502.199677,229.485397 504.722290,214.568130 514.009033,201.602646 
	C528.338806,181.596451 549.014832,176.489227 572.109375,178.428284 
	C589.672302,179.902893 604.367554,187.230896 614.554016,202.100845 
	C632.580444,228.415344 629.000244,275.747253 594.393066,293.001343 
	C568.980042,305.671478 531.250366,300.887238 514.489197,276.989746 
	C507.920349,267.624054 504.567688,257.245117 503.167175,245.598618 
M519.118713,234.807831 
	C518.698853,248.983688 520.772766,262.648773 528.007812,275.094452 
	C543.152893,301.147064 578.829529,303.405579 597.202942,279.551849 
	C613.340942,258.600128 612.739075,217.767593 596.435608,197.021988 
	C579.933167,176.023132 545.498535,177.161560 530.794312,198.432648 
	C523.341064,209.214432 520.294678,221.165924 519.118713,234.807831 
z"/>
<path fill="#F2A690" opacity="1.000000" stroke="none" 
	d="
M645.366089,178.743988 
	C646.045959,181.257614 646.725891,183.771225 647.632080,186.527847 
	C652.394104,199.343353 657.213867,211.822464 661.388733,224.513687 
	C665.901733,238.232941 666.663635,252.488373 665.908936,266.830231 
	C665.832886,268.275269 665.159912,269.688873 664.763977,271.117065 
	C664.338745,271.038177 663.913452,270.959259 663.488159,270.880371 
	C663.656799,268.131165 663.960754,265.382202 663.966187,262.632660 
	C663.977966,256.709259 663.197388,251.029358 658.357300,246.773407 
	C657.782410,246.267899 657.256470,245.368652 657.228210,244.631958 
	C656.962097,237.690140 651.904541,233.322754 648.600220,227.979889 
	C647.183716,225.689514 646.941711,222.707077 645.790894,220.212158 
	C640.670044,209.110367 635.594177,197.981522 630.162598,187.030823 
	C622.447815,171.476715 614.327454,156.137375 609.682251,139.251266 
	C605.935547,125.631248 604.560730,111.872353 607.207397,97.984558 
	C611.247986,76.782799 620.390808,58.646362 639.607971,46.986755 
	C645.306946,43.529022 651.322998,41.951305 657.700684,43.144146 
	C656.213257,44.185207 654.729553,45.223633 652.739990,46.618202 
	C649.900635,49.193146 647.567200,51.411945 644.380615,54.441929 
	C646.875000,54.600250 648.461365,54.700935 650.047729,54.801628 
	C650.460083,55.423363 650.872498,56.045101 651.088379,56.944099 
	C649.295166,59.287495 647.698486,61.353626 645.642822,63.759274 
	C631.539124,79.257202 623.924622,96.913872 625.272949,117.416672 
	C626.660461,138.516129 633.427795,158.200958 643.888916,176.962128 
	C644.356567,177.846451 644.820068,178.357361 645.287109,178.825867 
	C645.290649,178.783463 645.366089,178.743988 645.366089,178.743988 
z"/>
<path fill="#F24B48" opacity="1.000000" stroke="none" 
	d="
M188.725143,195.632599 
	C191.553360,189.152451 194.204529,183.010910 197.450134,175.492371 
	C198.771301,178.429337 199.456985,179.848145 200.056778,181.302383 
	C214.214508,215.629745 228.257767,250.005112 242.632996,284.241089 
	C244.656769,289.060883 248.294785,293.202881 251.180313,297.650452 
	C242.852982,297.650452 233.886337,297.650452 223.581436,297.650452 
	C230.486130,292.572144 228.660538,287.279327 225.983215,281.759430 
	C223.959534,277.587189 222.074295,273.308014 220.615921,268.914307 
	C219.507629,265.575287 217.602493,264.896210 214.345276,264.931335 
	C198.680939,265.100372 183.012329,265.119873 167.348770,264.917877 
	C163.982346,264.874481 162.237793,265.848694 161.033936,268.985718 
	C158.957184,274.397369 156.536438,279.682220 154.125702,284.958893 
	C152.168060,289.243744 150.837036,293.383362 155.951691,297.604462 
	C150.380554,297.604462 145.787384,297.604462 140.856796,297.604462 
	C151.516464,286.814087 154.659439,272.531830 160.563461,259.753021 
	C170.299194,238.680710 179.260422,217.250549 188.725143,195.632599 
M168.927063,251.402039 
	C167.611328,254.387619 166.295593,257.373199 164.840042,260.676025 
	C182.478317,260.676025 199.595581,260.676025 217.235748,260.676025 
	C208.726959,240.007248 200.407074,219.797333 191.800323,198.890579 
	C183.975281,216.741135 176.540894,233.700546 168.927063,251.402039 
z"/>
<path fill="#F04A47" opacity="1.000000" stroke="none" 
	d="
M429.778503,296.255249 
	C403.893616,287.133759 389.688843,263.922760 391.603027,234.341736 
	C393.294373,208.204361 407.446259,188.325195 429.907990,181.316544 
	C450.595306,174.861526 470.580688,178.213821 489.911774,186.913116 
	C491.268250,187.523544 492.447205,189.745239 492.682800,191.366776 
	C493.122955,194.395813 492.809296,197.534409 492.809296,202.036301 
	C490.871307,200.005417 489.890839,199.040421 488.979736,198.013901 
	C473.865601,180.984863 447.438965,176.578644 429.715942,188.411560 
	C418.287201,196.042053 412.412567,207.427551 409.633240,220.527176 
	C405.694916,239.089661 406.597809,257.248871 415.966644,274.164093 
	C431.046448,301.390289 471.432617,303.830048 490.078644,278.806946 
	C490.643555,278.048798 490.820221,277.001343 491.177948,276.088806 
	C491.784119,276.452362 492.390259,276.815948 492.996429,277.179504 
	C492.996429,280.741302 493.210144,284.323792 492.868805,287.852600 
	C492.763611,288.940002 491.335449,290.352448 490.188782,290.818695 
	C470.753326,298.721558 450.970490,303.267426 429.778503,296.255249 
z"/>
<path fill="#ED8583" opacity="1.000000" stroke="none" 
	d="
M740.934509,281.356995 
	C741.077698,280.524109 741.227295,280.018677 741.545410,279.307495 
	C748.073181,274.191498 754.436096,269.591522 758.388306,261.969879 
	C760.588928,257.726135 765.573303,254.890121 769.405579,251.536774 
	C775.262573,246.411728 781.201965,241.380646 787.124634,236.331070 
	C787.827576,235.731750 788.584534,234.956039 789.419800,234.793762 
	C792.850403,234.127258 793.706726,231.600128 795.536072,228.994003 
	C798.317932,225.030838 803.431580,222.254562 808.096680,220.210770 
	C811.600464,218.675781 815.074097,218.413910 816.340454,213.770706 
	C816.951111,211.531601 819.387146,209.445084 821.490845,208.018036 
	C830.609863,201.832275 836.627197,192.940857 842.480164,184.017853 
	C846.334900,178.141266 849.529602,171.771561 852.441956,165.360138 
	C854.120605,161.664581 857.283325,157.855652 854.388550,153.237778 
	C854.107300,152.789200 854.333130,151.934631 854.492615,151.311829 
	C855.818420,146.133194 857.584717,141.018402 858.288879,135.759888 
	C858.495361,134.217987 855.808411,132.193527 854.275635,130.550613 
	C853.397461,129.609375 852.173645,128.990677 851.105408,128.226746 
	C851.326294,127.683594 851.547241,127.140442 851.768127,126.597290 
	C854.504211,127.346764 857.240356,128.096237 860.741821,129.055344 
	C858.236694,124.860329 855.709229,120.627930 853.184448,116.396927 
	C858.185852,116.719177 862.842529,121.236069 863.926514,126.898781 
	C864.705505,130.968033 865.124451,135.126953 866.188538,139.116623 
	C868.578796,148.078033 867.813171,156.511032 864.033508,165.074081 
	C861.223511,171.440247 859.681519,178.366104 857.574768,185.042664 
	C857.089417,184.907394 856.604126,184.772125 856.118774,184.636871 
	C856.431030,182.249786 856.743286,179.862717 857.055603,177.475632 
	C856.651978,177.355927 856.248413,177.236206 855.844849,177.116501 
	C853.529114,182.933762 851.108215,188.711823 848.924072,194.578064 
	C846.127625,202.088898 839.487122,206.100464 834.061829,211.202148 
	C831.585388,213.530853 828.656921,215.372116 826.102295,217.625763 
	C818.752258,224.109741 811.494873,230.698730 804.174377,237.216370 
	C803.716797,237.623718 802.926941,238.123199 802.463562,237.988510 
	C796.162537,236.156830 794.277039,240.790741 791.938965,244.939285 
	C791.312012,246.051804 790.334290,247.191635 789.230225,247.775558 
	C777.765198,253.838959 769.654236,263.797729 760.823425,272.774353 
	C756.667480,276.998810 754.315857,283.011780 751.221802,288.258667 
	C750.351685,289.734222 750.081360,292.348206 748.955078,292.730927 
	C746.297668,293.633942 743.290771,293.508667 739.098938,293.933807 
	C742.147949,288.159546 744.554199,283.602386 746.960510,279.045227 
	C746.451294,278.744995 745.942139,278.444763 745.432922,278.144531 
	C744.129456,280.167053 742.826050,282.189606 741.178894,284.745483 
	C741.066711,283.302795 741.003845,282.493652 740.934509,281.356995 
z"/>
<path fill="#F04A47" opacity="1.000000" stroke="none" 
	d="
M272.193359,222.999939 
	C272.193298,212.842697 272.064240,203.183060 272.246002,193.529251 
	C272.341003,188.483994 271.591492,183.975052 266.197235,180.279999 
	C275.566589,180.279999 283.799652,180.279999 293.620850,180.279999 
	C286.767761,184.409912 286.943512,190.002930 286.962799,195.755219 
	C287.066101,226.558075 287.011536,257.361450 287.011536,288.164673 
	C287.011536,289.974670 287.011536,291.784668 287.011536,294.396973 
	C289.702911,294.396973 292.115723,294.396973 294.528534,294.396973 
	C302.520721,294.396973 310.519409,294.195709 318.503204,294.454254 
	C326.307709,294.707001 333.783081,294.322144 340.226593,288.498749 
	C339.391174,291.476807 338.555756,294.454895 337.643005,297.708618 
	C314.217865,297.708618 290.825592,297.708618 266.298065,297.708618 
	C274.152618,291.960876 272.097595,284.159424 272.150513,276.947388 
	C272.281097,259.132416 272.193329,241.315857 272.193359,222.999939 
z"/>
<path fill="#F54C49" opacity="1.000000" stroke="none" 
	d="
M357.559418,189.859543 
	C355.961273,186.429565 354.512634,183.401337 353.016418,180.273575 
	C360.557007,180.273575 368.714874,180.273575 378.463409,180.273575 
	C370.670105,184.653641 372.015167,191.253174 372.010223,197.434433 
	C371.987488,225.899597 372.066956,254.365082 371.942200,282.829742 
	C371.918091,288.329956 371.984741,293.532990 378.781921,297.563416 
	C368.863617,297.563416 360.703918,297.563416 351.710541,297.563416 
	C359.729034,291.491150 357.798340,283.031769 357.814392,275.148834 
	C357.872040,246.853195 357.758087,218.557175 357.559418,189.859543 
z"/>
<path fill="#E48A46" opacity="1.000000" stroke="none" 
	d="
M414.205994,335.259277 
	C406.693268,351.452728 399.363190,367.318787 392.033112,383.184845 
	C391.500519,382.947296 390.967896,382.709747 390.435303,382.472198 
	C397.171021,360.420502 408.799591,340.447754 418.606384,319.542297 
	C405.710358,319.542297 392.994171,319.542297 380.278015,319.542297 
	C380.170624,319.058777 380.063232,318.575256 379.955841,318.091705 
	C381.596130,317.717712 383.227570,317.068054 384.878235,317.014893 
	C394.847229,316.693756 404.820770,316.347534 414.792419,316.358276 
	C418.782135,316.362579 421.529175,315.426239 422.420105,311.208679 
	C422.589264,310.407990 423.051697,309.669312 423.378784,308.902008 
	C423.950958,309.218170 424.523163,309.534302 425.095337,309.850464 
	C424.833496,311.765137 424.571655,313.679810 424.177582,316.561462 
	C436.144989,316.561462 447.997406,316.561462 459.849792,316.561462 
	C459.920807,317.223877 459.991821,317.886261 460.062805,318.548676 
	C458.584106,318.803925 457.104706,319.282867 455.626770,319.278320 
	C445.640259,319.247742 435.651672,318.977905 425.670197,319.152496 
	C424.040985,319.180969 421.827362,320.652313 420.948730,322.102081 
	C418.465790,326.199188 416.536224,330.631622 414.205994,335.259277 
z"/>
<path fill="#E48A46" opacity="1.000000" stroke="none" 
	d="
M368.396973,343.934692 
	C375.171722,342.970856 381.525299,341.997101 387.878845,341.023315 
	C388.031952,341.648407 388.185059,342.273529 388.338196,342.898621 
	C386.064941,343.600433 383.822876,344.437317 381.510803,344.970734 
	C378.457672,345.675110 375.356659,346.183136 372.263916,346.702179 
	C364.643768,347.981018 362.020782,345.453339 362.372345,336.393738 
	C360.393951,337.485992 358.680786,338.259827 357.153290,339.305023 
	C350.712799,343.712097 344.395874,348.304688 337.861816,352.565765 
	C336.630829,353.368500 334.615448,352.968445 332.961975,353.123413 
	C333.134766,351.468842 332.784210,349.494873 333.566864,348.212463 
	C338.010162,340.931824 344.022095,334.973633 352.162445,332.402405 
	C355.632660,331.306305 360.082062,332.764984 363.903839,333.762451 
	C364.720276,333.975555 364.526428,337.305664 365.196472,339.046387 
	C365.861206,340.773254 367.028717,342.306580 368.396973,343.934692 
M338.064270,349.158630 
	C344.498993,344.531738 350.933685,339.904846 357.368408,335.277985 
	C357.074463,334.891571 356.780487,334.505157 356.486542,334.118744 
	C347.853271,336.135620 341.517059,341.333221 336.409729,349.082489 
	C336.412018,349.311829 336.414276,349.541199 336.416565,349.770508 
	C336.759369,349.659698 337.102173,349.548889 338.064270,349.158630 
z"/>
<path fill="#E38946" opacity="1.000000" stroke="none" 
	d="
M706.254517,297.833069 
	C708.386841,302.818146 712.961914,302.001099 716.623535,302.939789 
	C720.758179,303.999756 724.180603,307.757263 722.885254,310.395508 
	C721.933594,312.333801 720.534180,314.052277 718.723511,316.793335 
	C718.032349,314.730255 716.939026,313.142212 717.130310,311.727966 
	C717.739136,307.227509 714.941467,306.225891 711.587524,304.973358 
	C708.860779,303.955078 705.947388,302.492126 704.051941,300.385071 
	C699.853699,295.717987 688.231934,291.647003 682.097839,292.976685 
	C678.867126,293.677002 675.458984,293.558563 672.277283,293.798767 
	C673.137573,286.327637 666.979248,289.015869 664.661377,286.852631 
	C668.439026,283.173767 675.661987,285.712830 677.958069,291.672424 
	C688.075073,289.991852 698.191467,288.314087 706.254517,297.833069 
z"/>
<path fill="#DE8744" opacity="1.000000" stroke="none" 
	d="
M611.893066,343.976929 
	C609.610046,344.591644 607.749451,345.312805 605.822205,345.714386 
	C602.858643,346.331909 601.995789,348.196808 600.777039,350.907349 
	C598.901184,355.079437 595.554199,358.656921 592.460205,362.158722 
	C591.830322,362.871613 589.246216,362.606171 588.156189,361.889496 
	C587.479431,361.444611 587.332825,358.896118 587.958740,357.989258 
	C590.835327,353.821442 594.067627,349.899170 596.994263,346.118805 
	C595.384644,344.014465 591.641785,341.169922 592.055359,339.196564 
	C592.728271,335.985840 596.119202,333.344727 598.363037,330.463226 
	C599.011414,330.946320 599.659790,331.429413 600.308167,331.912506 
	C598.428650,334.424011 596.549072,336.935547 594.669189,339.447540 
	C598.071899,343.178101 601.652832,344.996674 606.805969,342.360382 
	C609.243530,341.113342 612.414917,341.300781 615.253845,340.838318 
	C615.423035,341.341675 615.592163,341.845032 615.761292,342.348389 
	C614.602722,342.878967 613.444153,343.409576 611.893066,343.976929 
z"/>
<path fill="#E38A46" opacity="1.000000" stroke="none" 
	d="
M560.881714,349.890625 
	C556.805908,351.340210 553.163147,353.168762 549.321655,353.813446 
	C544.761047,354.578796 542.427368,351.811798 542.915039,347.331879 
	C543.500671,341.951904 551.010742,333.568176 556.360168,332.578278 
	C557.479187,332.371216 559.357239,332.641815 559.795288,333.358612 
	C560.269531,334.134613 559.889587,336.238068 559.148010,336.808960 
	C556.306824,338.996185 553.397095,341.515533 550.086487,342.562927 
	C546.126465,343.815735 545.605225,346.415283 546.386475,349.306946 
	C546.599121,350.094025 550.519653,350.792023 552.160522,350.119934 
	C558.716370,347.434631 565.044556,344.193481 571.471802,341.151001 
	C571.544189,343.812469 571.544189,343.812469 560.881714,349.890625 
z"/>
<path fill="#E48A46" opacity="1.000000" stroke="none" 
	d="
M209.416382,352.392242 
	C206.198822,353.377991 203.384857,354.582428 200.469788,354.923981 
	C195.255539,355.534912 192.481125,352.596893 194.159027,347.772217 
	C196.487778,341.076141 200.539261,335.319092 206.866867,331.683105 
	C208.075104,330.988800 210.560135,330.805664 211.375336,331.557922 
	C212.470535,332.568542 212.515244,334.717560 213.010864,336.377930 
	C212.547867,336.579773 212.084869,336.781616 211.621857,336.983459 
	C210.793610,336.012054 209.965363,335.040649 208.881180,333.769104 
	C202.474655,337.992462 197.949997,343.404388 196.414612,352.086304 
	C209.420410,351.688080 219.299530,343.523773 231.201035,341.822144 
	C224.742264,346.699005 217.217239,349.379791 209.416382,352.392242 
z"/>
<path fill="#E48A46" opacity="1.000000" stroke="none" 
	d="
M290.287598,350.390747 
	C290.010895,342.215942 294.932800,337.572205 300.760101,333.803467 
	C302.552429,332.644226 305.226105,332.847748 308.513733,332.238800 
	C306.250763,338.757904 302.414886,340.974335 297.900696,342.620361 
	C296.397736,343.168396 294.762024,344.310364 293.999573,345.645020 
	C293.321472,346.831970 293.231049,348.983246 293.900055,350.096863 
	C294.369324,350.878052 296.779144,351.202271 297.927399,350.743011 
	C302.666412,348.847717 307.263916,346.595245 311.894806,344.434204 
	C314.356781,343.285248 316.780670,342.054688 319.880981,341.717346 
	C319.465668,342.438660 319.229340,343.506073 318.607361,343.827789 
	C312.306946,347.086365 306.033661,350.425201 299.561035,353.311584 
	C296.162476,354.827118 292.674377,354.476410 290.287598,350.390747 
z"/>
<path fill="#DD8644" opacity="1.000000" stroke="none" 
	d="
M521.116577,344.181519 
	C512.784424,346.102264 508.650635,345.508759 504.732086,341.808014 
	C501.611694,344.675385 498.576416,347.694183 495.268341,350.376495 
	C494.150757,351.282623 492.342102,351.336487 490.849304,351.779846 
	C490.469757,350.403076 489.490784,348.862793 489.813965,347.677612 
	C491.251068,342.407410 493.061066,337.238953 494.736237,332.033691 
	C495.554535,332.275269 496.372864,332.516876 497.191162,332.758453 
	C495.604187,337.705963 494.017212,342.653473 492.430206,347.600983 
	C492.748718,347.773376 493.067261,347.945801 493.385773,348.118195 
	C498.385742,343.407928 503.385712,338.697693 508.385681,333.987427 
	C508.817871,334.354523 509.250061,334.721619 509.682220,335.088715 
	C509.223633,337.031433 508.765015,338.974152 508.025665,342.106018 
	C514.333679,341.798828 520.031372,341.521393 525.729065,341.243927 
	C525.833130,341.743134 525.937195,342.242371 526.041260,342.741577 
	C524.540283,343.187439 523.039307,343.633270 521.116577,344.181519 
z"/>
<path fill="#E68B46" opacity="1.000000" stroke="none" 
	d="
M264.847778,335.627533 
	C263.884460,337.740356 263.091736,339.462036 261.807007,342.252289 
	C266.233948,341.867340 269.541168,341.579742 273.034637,341.275970 
	C270.220642,346.339020 263.201569,346.604858 258.967346,341.955139 
	C255.548752,345.648224 252.129974,349.341492 248.026199,353.774780 
	C246.603378,347.046539 252.611923,334.997589 258.246307,331.694427 
	C257.923096,333.711243 257.679260,335.232666 257.255646,337.876038 
	C259.476959,335.928986 260.780884,334.520630 262.335754,333.491486 
	C264.209198,332.251404 265.549866,332.464233 264.847778,335.627533 
M255.764114,340.648560 
	C256.033447,340.080902 256.302765,339.513245 256.572083,338.945587 
	C256.356689,338.816162 256.141327,338.686737 255.925949,338.557312 
	C255.404510,339.187775 254.883057,339.818237 254.075943,340.924774 
	C254.130112,341.185638 254.184280,341.446503 254.238449,341.707367 
	C254.503830,341.484283 254.769211,341.261200 255.764114,340.648560 
z"/>
<path fill="#D58141" opacity="1.000000" stroke="none" 
	d="
M670.284668,313.099274 
	C670.900513,316.118317 671.516296,319.137390 671.861450,322.628235 
	C671.448242,324.018402 671.305664,324.936768 671.163086,325.855133 
	C671.808228,325.487152 672.453247,325.119202 673.098328,324.751221 
	C674.120300,326.084381 675.142273,327.417572 675.409668,328.967896 
	C675.125244,329.464905 675.595337,329.744781 676.053833,329.988586 
	C676.042114,329.952454 675.966736,329.943359 675.728333,330.215851 
	C675.759094,330.887634 676.028259,331.286926 676.070679,331.950684 
	C675.695679,332.393768 675.547363,332.572388 675.398987,332.751038 
	C673.388916,330.628662 671.468018,328.410522 669.332520,326.422852 
	C668.203186,325.371643 666.776306,324.545532 665.348999,323.930634 
	C663.073669,322.950439 660.731750,322.054749 658.337524,321.433319 
	C649.329651,319.095215 649.693970,318.117920 654.243835,309.469025 
	C654.243835,310.405640 654.571899,311.511322 654.190552,312.251404 
	C651.707947,317.069519 654.256531,318.760620 658.484558,319.729980 
	C661.315552,320.379028 664.077271,321.330475 667.505920,322.332458 
	C665.879333,313.975342 668.797791,307.844574 674.590454,302.759094 
	C675.140503,303.177338 675.312012,303.498718 675.483582,303.820068 
	C674.845825,305.062744 674.208008,306.305389 673.813354,307.892487 
	C674.056580,308.236938 674.095337,308.289001 674.095337,308.289001 
	C673.362549,308.899200 672.629761,309.509369 671.571228,310.332245 
	C670.925232,311.396393 670.604980,312.247833 670.284668,313.099274 
z"/>
<path fill="#DF8745" opacity="1.000000" stroke="none" 
	d="
M444.761475,348.096405 
	C449.886780,347.430908 454.737000,346.889435 459.372925,345.585846 
	C463.516846,344.420563 467.424286,342.414398 471.436066,340.779266 
	C471.715271,341.239746 471.994446,341.700226 472.273621,342.160706 
	C471.307861,343.014343 470.480591,344.246613 469.353363,344.658844 
	C463.028900,346.971802 456.646729,349.131256 450.254272,351.252716 
	C446.578979,352.472443 442.811096,351.976288 441.213196,348.365082 
	C439.524414,344.548340 441.545441,340.937561 444.965729,338.022156 
	C444.774872,341.311035 444.584045,344.599915 444.761475,348.096405 
z"/>
<path fill="#E5817F" opacity="1.000000" stroke="none" 
	d="
M689.749207,34.643040 
	C688.981689,37.765491 688.331726,40.485531 687.681702,43.205566 
	C687.213745,43.171265 686.745850,43.136967 686.277893,43.102665 
	C686.897034,33.928574 687.516235,24.754478 688.135376,15.580384 
	C691.797546,20.131174 691.797546,20.131174 689.749207,34.643040 
z"/>
<path fill="#D58141" opacity="1.000000" stroke="none" 
	d="
M688.487793,330.844910 
	C689.647461,330.521698 690.807251,330.198486 692.400696,329.853088 
	C692.834412,329.830841 693.000000,329.998779 693.063721,330.300842 
	C693.738464,331.381592 694.349487,332.160278 695.023438,333.014587 
	C695.086243,333.090240 695.212524,333.240997 695.212524,333.240997 
	C688.774658,337.523254 682.339111,336.784119 675.651855,332.991638 
	C675.547363,332.572388 675.695679,332.393768 676.441406,332.065857 
	C677.703125,331.958374 678.367493,332.000214 679.023560,332.006775 
	C679.015320,331.971497 678.944397,331.986633 678.958496,332.381470 
	C679.665222,332.864014 680.357849,332.951721 681.035950,332.999939 
	C681.021362,332.960449 680.937439,332.968018 681.014771,333.348602 
	C684.102478,334.020599 687.112732,334.312012 689.818909,334.573975 
	C689.161743,332.732910 688.824768,331.788910 688.487793,330.844910 
z"/>
<path fill="#CD7C3F" opacity="1.000000" stroke="none" 
	d="
M698.187622,307.823242 
	C703.701538,314.092773 701.958252,320.628204 699.279541,327.553223 
	C699.661194,327.894562 699.555298,328.017151 699.356445,327.581421 
	C698.135681,327.819092 697.113831,328.492493 696.050537,328.819153 
	C695.979004,328.241547 695.948914,328.010681 695.918762,327.779785 
	C700.546448,321.970154 701.598999,315.827698 697.677124,308.718597 
	C697.867737,308.086304 698.027710,307.954773 698.187622,307.823242 
z"/>
<path fill="#E15F46" opacity="1.000000" stroke="none" 
	d="
M784.353577,62.079189 
	C787.092529,57.753593 791.116211,55.401836 796.166504,54.878857 
	C796.431885,55.413353 796.697266,55.947849 796.962646,56.482349 
	C792.827087,58.363232 788.691528,60.244118 784.353577,62.079189 
z"/>
<path fill="#321510" opacity="1.000000" stroke="none" 
	d="
M759.262939,104.549568 
	C763.676025,100.846786 763.221863,95.498405 764.201172,90.248749 
	C764.473999,94.076263 764.537048,98.218788 764.356445,102.655312 
	C762.442932,103.011688 763.927917,107.631912 760.167236,105.080093 
	C759.551697,104.720345 759.407288,104.634956 759.262939,104.549568 
z"/>
<path fill="#CB7270" opacity="1.000000" stroke="none" 
	d="
M689.884766,119.631302 
	C688.808838,119.291245 687.842590,118.539101 686.920044,117.430862 
	C687.640198,115.938759 688.746399,114.861511 688.911255,113.655571 
	C689.378174,110.240868 689.459778,106.773483 689.693176,103.326843 
	C690.264465,103.378296 690.835754,103.429749 691.407043,103.481201 
	C690.936157,108.727211 690.465332,113.973221 689.884766,119.631302 
z"/>
<path fill="#BD733A" opacity="1.000000" stroke="none" 
	d="
M675.868652,303.772705 
	C675.312012,303.498718 675.140503,303.177338 674.912903,302.586700 
	C678.992981,299.584869 683.284729,297.686798 688.658142,299.236511 
	C684.191284,300.852936 680.222534,302.289124 675.868652,303.772705 
z"/>
<path fill="#DA7A79" opacity="1.000000" stroke="none" 
	d="
M707.862793,53.425259 
	C708.478516,48.737434 709.096802,44.469578 709.715088,40.201721 
	C710.293640,40.295391 710.872192,40.389061 711.450745,40.482731 
	C710.639099,45.469246 709.827454,50.455757 708.926331,55.992161 
	C708.261902,55.207375 708.030884,55.044182 707.964478,54.829990 
	C707.868774,54.521152 707.892517,54.175278 707.862793,53.425259 
z"/>
<path fill="#261411" opacity="1.000000" stroke="none" 
	d="
M650.061523,54.431885 
	C648.461365,54.700935 646.875000,54.600250 644.380615,54.441929 
	C647.567200,51.411945 649.900635,49.193146 652.584290,46.922409 
	C651.981384,49.267696 651.028320,51.664921 650.061523,54.431885 
z"/>
<path fill="#CD7C3F" opacity="1.000000" stroke="none" 
	d="
M675.178711,329.059845 
	C676.851196,329.440887 678.508972,329.916534 680.199768,330.180359 
	C682.604858,330.555634 685.034302,330.775269 688.354431,331.302734 
	C686.482849,332.018738 683.710144,332.493378 680.937439,332.968018 
	C680.937439,332.968018 681.021362,332.960449 680.938965,332.672180 
	C680.219177,332.251495 679.581787,332.119080 678.944397,331.986633 
	C678.944397,331.986633 679.015320,331.971497 678.959229,331.682953 
	C677.924316,330.910736 676.945557,330.427063 675.966736,329.943359 
	C675.966736,329.943359 676.042114,329.952454 675.898071,329.686890 
	C675.562256,329.300842 675.370483,329.180359 675.178711,329.059845 
z"/>
<path fill="#1D1109" opacity="1.000000" stroke="none" 
	d="
M681.014771,333.348602 
	C683.710144,332.493378 686.482849,332.018738 688.808960,331.193054 
	C688.362427,330.842010 688.426331,330.788788 688.457031,330.816833 
	C688.824768,331.788910 689.161743,332.732910 689.818909,334.573975 
	C687.112732,334.312012 684.102478,334.020599 681.014771,333.348602 
z"/>
<path fill="#D58141" opacity="1.000000" stroke="none" 
	d="
M695.612427,327.866791 
	C695.948914,328.010681 695.979004,328.241547 696.155701,329.080627 
	C696.980957,329.584503 697.659607,329.480072 698.544739,329.573364 
	C698.888855,329.902985 699.026428,330.034882 699.164062,330.166809 
	C698.057922,331.148468 696.951782,332.130157 695.529114,333.176422 
	C695.212524,333.240997 695.086243,333.090240 695.003906,332.686951 
	C694.281067,331.522064 693.640503,330.760437 693.000000,329.998779 
	C693.000000,329.998779 692.834412,329.830841 692.751831,329.746704 
	C693.548157,329.093018 694.427124,328.523407 695.612427,327.866791 
z"/>
<path fill="#CD7C3F" opacity="1.000000" stroke="none" 
	d="
M673.093872,324.472656 
	C672.453247,325.119202 671.808228,325.487152 671.163086,325.855133 
	C671.305664,324.936768 671.448242,324.018402 671.886475,323.023407 
	C672.484558,323.362518 672.786987,323.778290 673.093872,324.472656 
z"/>
<path fill="#3C2513" opacity="1.000000" stroke="none" 
	d="
M670.572144,313.073395 
	C670.604980,312.247833 670.925232,311.396393 671.502319,310.722321 
	C671.459290,311.615631 671.159485,312.331573 670.572144,313.073395 
z"/>
<path fill="#CD7C3F" opacity="1.000000" stroke="none" 
	d="
M694.995728,305.005737 
	C695.978149,305.743866 696.960571,306.482025 698.065308,307.521698 
	C698.027710,307.954773 697.867737,308.086304 697.462952,308.409241 
	C696.354858,307.553925 695.491516,306.507263 694.827881,305.208557 
	C695.027588,304.956482 694.995728,305.005737 694.995728,305.005737 
z"/>
<path fill="#D58141" opacity="1.000000" stroke="none" 
	d="
M699.555298,328.017151 
	C699.555298,328.017151 699.661194,327.894562 699.637329,327.926270 
	C700.022644,327.937866 700.431824,327.917786 700.841064,327.897705 
	C700.485291,328.573639 700.129578,329.249542 699.468994,330.046143 
	C699.026428,330.034882 698.888855,329.902985 698.730103,329.329926 
	C698.991089,328.598236 699.273193,328.307678 699.555298,328.017151 
z"/>
<path fill="#1D1109" opacity="1.000000" stroke="none" 
	d="
M675.212036,329.080353 
	C675.370483,329.180359 675.562256,329.300842 675.909729,329.723022 
	C675.595337,329.744781 675.125244,329.464905 674.989014,329.148071 
	C675.322937,329.111145 675.245361,329.100861 675.212036,329.080353 
z"/>
<path fill="#F1A96B" opacity="1.000000" stroke="none" 
	d="
M835.839966,151.853928 
	C835.992737,151.274994 836.145569,150.696060 836.298340,150.117126 
	C836.460449,150.132904 836.622620,150.148697 836.784729,150.164474 
	C836.822571,150.762955 836.860474,151.361435 836.560669,152.074982 
	C836.095276,152.078003 835.967590,151.965973 835.839966,151.853928 
z"/>
<path fill="#F1A96B" opacity="1.000000" stroke="none" 
	d="
M835.004456,154.007904 
	C834.986938,153.270981 835.143066,152.696640 835.569580,151.988129 
	C835.967590,151.965973 836.095276,152.078003 836.411621,152.361618 
	C836.355286,153.033066 836.110291,153.532944 835.700195,154.258820 
	C835.535156,154.484848 835.178040,154.170502 835.004456,154.007904 
z"/>
<path fill="#F14A48" opacity="1.000000" stroke="none" 
	d="
M177.047943,317.971375 
	C177.154190,317.503937 177.518906,317.221985 177.883636,316.940033 
	C178.038895,317.289185 178.194153,317.638336 178.092590,318.248657 
	C177.659317,318.392181 177.482864,318.274506 177.047943,317.971375 
z"/>
<path fill="#F14A48" opacity="1.000000" stroke="none" 
	d="
M180.141022,316.132660 
	C179.797516,316.433105 179.454010,316.733551 179.110504,317.033997 
	C179.051071,316.665497 178.991638,316.297028 179.373215,315.866455 
	C179.814224,315.804413 180.141006,316.132660 180.141022,316.132660 
z"/>
<path fill="#F14A48" opacity="1.000000" stroke="none" 
	d="
M179.656830,315.634521 
	C179.892761,315.342285 180.286087,315.219940 180.679428,315.097626 
	C180.681412,315.366943 180.683411,315.636230 180.413208,316.019104 
	C180.141006,316.132660 179.814224,315.804413 179.656830,315.634521 
z"/>
<path fill="#D58141" opacity="1.000000" stroke="none" 
	d="
M674.046143,308.206207 
	C674.035645,308.175476 674.243103,308.253326 674.243103,308.253326 
	C674.243103,308.253326 674.054260,308.031555 674.074829,308.160278 
	C674.095337,308.289001 674.056580,308.236938 674.046143,308.206207 
z"/>
<path fill="#CD7C3F" opacity="1.000000" stroke="none" 
	d="
M695.040894,304.930359 
	C694.840088,304.930664 694.625916,304.957092 694.411804,304.983521 
	C694.545959,304.866608 694.680115,304.749695 694.904968,304.819275 
	C694.995728,305.005737 695.027588,304.956482 695.040894,304.930359 
z"/>
<path fill="#F2664B" opacity="1.000000" stroke="none" 
	d="
M709.219116,262.897095 
	C709.027832,262.646759 709.176147,262.371307 709.614990,262.026001 
	C709.706543,262.216522 709.590942,262.521759 709.219116,262.897095 
z"/>
<path fill="#F2664B" opacity="1.000000" stroke="none" 
	d="
M710.190979,261.880554 
	C709.889404,261.856689 709.862488,261.475861 710.176758,261.245544 
	C710.671509,261.024902 710.851929,261.034546 711.032349,261.044220 
	C711.032349,261.044220 710.988159,260.994293 710.965027,260.970276 
	C710.792114,261.265656 710.642334,261.585052 710.190979,261.880554 
z"/>
<path fill="#0A0505" opacity="1.000000" stroke="none" 
	d="
M680.724548,95.526627 
	C679.674744,100.756180 678.756653,105.559227 677.838562,110.362282 
	C677.337524,110.312630 676.836487,110.262978 676.335388,110.213326 
	C676.880066,101.347641 677.424683,92.481949 677.969299,83.616264 
	C678.700989,83.619431 679.432678,83.622597 680.164307,83.625763 
	C680.394958,87.450554 680.625610,91.275337 680.724548,95.526627 
z"/>
<path fill="#100909" opacity="1.000000" stroke="none" 
	d="
M693.078247,180.017151 
	C693.320862,176.441513 693.459229,173.301941 693.722961,170.172928 
	C693.918213,167.855911 694.276428,165.552643 694.562073,163.243240 
	C695.172058,163.323425 695.782043,163.403610 696.392090,163.483795 
	C695.668762,172.599243 694.945496,181.714691 694.222168,190.830139 
	C693.501404,190.797577 692.780579,190.765015 692.059814,190.732437 
	C692.382507,187.307541 692.705139,183.882645 693.078247,180.017151 
z"/>
<path fill="#130B0A" opacity="1.000000" stroke="none" 
	d="
M696.074585,156.009674 
	C696.062439,157.401276 696.062439,158.383682 696.062439,159.366104 
	C693.631226,150.343933 696.673523,141.660294 697.878967,132.828033 
	C697.878967,139.342545 697.961060,145.859116 697.798645,152.369583 
	C697.771423,153.460129 696.684204,154.524200 696.074585,156.009674 
z"/>
<path fill="#010000" opacity="1.000000" stroke="none" 
	d="
M711.166138,260.554047 
	C710.851929,261.034546 710.671509,261.024902 710.223755,261.060547 
	C710.077759,260.349243 710.199097,259.592651 710.643433,258.622620 
	C711.077576,258.960724 711.188721,259.512299 711.166138,260.554047 
z"/>
<path fill="#0F0605" opacity="1.000000" stroke="none" 
	d="
M756.031738,146.925232 
	C755.234253,156.728271 753.001343,165.556870 745.517212,173.817719 
	C748.436279,156.487152 751.153748,140.353256 753.871216,124.219368 
	C756.391541,131.600098 758.106323,138.910446 756.031738,146.925232 
z"/>
<path fill="#170A07" opacity="1.000000" stroke="none" 
	d="
M746.624023,131.621155 
	C748.317932,134.914536 746.850037,142.339081 743.024902,146.652039 
	C744.137451,141.701462 745.249939,136.750870 746.624023,131.621155 
z"/>
<path fill="#0D0504" opacity="1.000000" stroke="none" 
	d="
M759.027100,86.988472 
	C758.541138,88.227142 758.234314,89.153328 757.927551,90.079514 
	C757.257202,89.510780 756.586914,88.942039 755.916626,88.373306 
	C758.227051,84.493965 760.537537,80.614616 762.847961,76.735268 
	C763.499451,77.130760 764.150940,77.526245 764.802368,77.921738 
	C762.937012,80.839821 761.071716,83.757904 759.027100,86.988472 
z"/>
<path fill="#321510" opacity="1.000000" stroke="none" 
	d="
M759.900635,104.952271 
	C759.863098,105.666260 759.621094,106.233719 759.379028,106.801170 
	C759.262268,106.257561 759.145569,105.713951 759.145874,104.859955 
	C759.407288,104.634956 759.551697,104.720345 759.900635,104.952271 
z"/>
<path fill="#010000" opacity="1.000000" stroke="none" 
	d="
M744.721191,243.682892 
	C744.950989,244.223389 744.863464,245.013840 744.397339,245.953461 
	C744.147156,245.379349 744.275513,244.656097 744.721191,243.682892 
z"/>
<path fill="#010000" opacity="1.000000" stroke="none" 
	d="
M716.965271,260.960236 
	C717.088318,260.609619 717.388916,260.435120 717.689453,260.260620 
	C717.732544,260.518799 717.775635,260.776978 717.662781,261.257324 
	C717.385498,261.365143 717.264160,261.250763 716.965271,260.960236 
z"/>
<path fill="#010000" opacity="1.000000" stroke="none" 
	d="
M773.940430,230.046936 
	C777.609619,227.264923 780.971558,224.822357 784.333496,222.379776 
	C784.753296,222.934860 785.173157,223.489960 785.593018,224.045044 
	C781.632263,227.032410 777.671570,230.019775 773.710815,233.007141 
	C773.416382,232.772827 773.121948,232.538513 772.827515,232.304199 
	C773.096069,231.664917 773.364624,231.025635 773.940430,230.046936 
z"/>
<path fill="#010000" opacity="1.000000" stroke="none" 
	d="
M788.899231,221.989914 
	C788.727234,222.562195 788.216187,222.879166 787.705200,223.196152 
	C787.581848,222.658447 787.458435,222.120728 787.599854,221.415649 
	C788.096436,221.410385 788.328369,221.572495 788.899231,221.989914 
z"/>
<path fill="#0B0504" opacity="1.000000" stroke="none" 
	d="
M643.884827,176.588730 
	C633.427795,158.200958 626.660461,138.516129 625.272949,117.416672 
	C623.924622,96.913872 631.539124,79.257202 645.525146,64.082916 
	C644.628540,68.295990 644.453186,73.367729 641.916138,76.566048 
	C637.574646,82.039009 638.285706,87.985413 637.812073,93.969475 
	C637.799011,94.134888 637.817261,94.328102 637.738892,94.459389 
	C634.253052,100.298370 634.680420,107.207352 632.724304,113.299255 
	C629.581299,123.087517 630.251465,130.552216 632.622681,138.723083 
	C636.400452,151.740433 640.346802,164.737305 647.867554,176.273987 
	C648.834473,177.757156 649.189453,179.639206 649.827881,181.336472 
	C649.438477,181.560699 649.049072,181.784927 648.659607,182.009171 
	C647.755615,181.031067 646.851562,180.052979 645.656860,178.909424 
	C645.366089,178.743988 645.290649,178.783463 645.272949,178.472565 
	C644.798462,177.637360 644.341675,177.113037 643.884827,176.588730 
z"/>
<path fill="#010000" opacity="1.000000" stroke="none" 
	d="
M519.152039,234.346710 
	C520.294678,221.165924 523.341064,209.214432 530.794312,198.432648 
	C545.498535,177.161560 579.933167,176.023132 596.435608,197.021988 
	C612.739075,217.767593 613.340942,258.600128 597.202942,279.551849 
	C578.829529,303.405579 543.152893,301.147064 528.007812,275.094452 
	C520.772766,262.648773 518.698853,248.983688 519.152039,234.346710 
z"/>
<path fill="#F35641" opacity="1.000000" stroke="none" 
	d="
M643.888916,176.962128 
	C644.341675,177.113037 644.798462,177.637360 645.269470,178.514984 
	C644.820068,178.357361 644.356567,177.846451 643.888916,176.962128 
z"/>
<path fill="#020101" opacity="1.000000" stroke="none" 
	d="
M169.016785,251.031006 
	C176.540894,233.700546 183.975281,216.741135 191.800323,198.890579 
	C200.407074,219.797333 208.726959,240.007248 217.235748,260.676025 
	C199.595581,260.676025 182.478317,260.676025 164.840042,260.676025 
	C166.295593,257.373199 167.611328,254.387619 169.016785,251.031006 
z"/>
<path fill="#0F0905" opacity="1.000000" stroke="none" 
	d="
M336.893005,348.901672 
	C341.517059,341.333221 347.853271,336.135620 356.486542,334.118744 
	C356.780487,334.505157 357.074463,334.891571 357.368408,335.277985 
	C350.933685,339.904846 344.498993,344.531738 337.617798,349.163025 
	C337.171356,349.167450 336.893005,348.901672 336.893005,348.901672 
z"/>
<path fill="#0F0905" opacity="1.000000" stroke="none" 
	d="
M337.308167,349.302734 
	C337.102173,349.548889 336.759369,349.659698 336.416565,349.770508 
	C336.414276,349.541199 336.412018,349.311829 336.651367,348.992065 
	C336.893005,348.901672 337.171356,349.167450 337.308167,349.302734 
z"/>
<path fill="#010000" opacity="1.000000" stroke="none" 
	d="
M254.361603,340.448700 
	C254.883057,339.818237 255.404510,339.187775 255.925949,338.557312 
	C256.141327,338.686737 256.356689,338.816162 256.572083,338.945587 
	C256.302765,339.513245 256.033447,340.080902 255.236938,340.689331 
	C254.709778,340.730072 254.361618,340.448700 254.361603,340.448700 
z"/>
<path fill="#010000" opacity="1.000000" stroke="none" 
	d="
M254.872192,340.884094 
	C254.769211,341.261200 254.503830,341.484283 254.238449,341.707367 
	C254.184280,341.446503 254.130112,341.185638 254.218781,340.686737 
	C254.361618,340.448700 254.709778,340.730072 254.872192,340.884094 
z"/>
<path fill="#1D1109" opacity="1.000000" stroke="none" 
	d="
M675.728333,330.215851 
	C676.945557,330.427063 677.924316,330.910736 678.967529,331.718262 
	C678.367493,332.000214 677.703125,331.958374 676.668091,331.801361 
	C676.028259,331.286926 675.759094,330.887634 675.728333,330.215851 
z"/>
<path fill="#CD7C3F" opacity="1.000000" stroke="none" 
	d="
M693.063721,330.300842 
	C693.640503,330.760437 694.281067,331.522064 694.941101,332.611328 
	C694.349487,332.160278 693.738464,331.381592 693.063721,330.300842 
z"/>
<path fill="#1D1109" opacity="1.000000" stroke="none" 
	d="
M678.958496,332.381470 
	C679.581787,332.119080 680.219177,332.251495 680.953552,332.711700 
	C680.357849,332.951721 679.665222,332.864014 678.958496,332.381470 
z"/>
<path fill="#010000" opacity="1.000000" stroke="none" 
	d="
M699.356445,327.581421 
	C699.273193,328.307678 698.991089,328.598236 698.523560,329.132233 
	C697.659607,329.480072 696.980957,329.584503 696.197144,329.427399 
	C697.113831,328.492493 698.135681,327.819092 699.356445,327.581421 
z"/>
</svg>