<svg width="48" height="32" viewBox="0 0 48 32" fill="none" xmlns="http://www.w3.org/2000/svg">
<g clip-path="url(#clip0_1_61)">
<path fill-rule="evenodd" clip-rule="evenodd" d="M16.1359 19.9075C19.3528 18.0635 21.5172 14.6157 21.5172 10.6667H29.3793L23.1724 21.3333H29.3793L23.1724 32L16.1359 19.9075ZM16.1359 19.9075C14.5538 20.8144 12.7174 21.3333 10.7586 21.3333C4.8168 21.3333 0 16.5577 0 10.6667C0 4.77563 4.8168 0 10.7586 0C16.7004 0 21.5172 4.77563 21.5172 10.6667H10.7586L16.1359 19.9075ZM29.3793 21.3333H48L35.5862 0L29.3793 10.6667H35.5862L29.3793 21.3333Z" fill="url(#paint0_linear_1_61)"/>
</g>
<defs>
<linearGradient id="paint0_linear_1_61" x1="24" y1="0" x2="24" y2="32" gradientUnits="userSpaceOnUse">
<stop offset="0.145833" stop-color="white"/>
<stop offset="0.822917"/>
</linearGradient>
<clipPath id="clip0_1_61">
<rect width="48" height="32" fill="white"/>
</clipPath>
</defs>
</svg>
