<svg width="96" height="22" viewBox="0 0 96 22" fill="none" xmlns="http://www.w3.org/2000/svg">
<path d="M22.2209 15.4524C22.1402 15.4524 22.0676 15.4236 22.0031 15.3662C21.9466 15.3005 21.9184 15.2267 21.9184 15.1446V7.15574C21.9184 7.06546 21.9466 6.99161 22.0031 6.93417C22.0595 6.86851 22.1321 6.83569 22.2209 6.83569H27.8476C27.9364 6.83569 28.009 6.86851 28.0654 6.93417C28.13 6.99161 28.1622 7.06546 28.1622 7.15574V8.46055C28.1622 8.55083 28.13 8.62469 28.0654 8.68212C28.009 8.73956 27.9364 8.76829 27.8476 8.76829H24.1449V10.4793H27.6056C27.6944 10.4793 27.767 10.5121 27.8234 10.5778C27.888 10.6352 27.9202 10.7091 27.9202 10.7994V12.1042C27.9202 12.1944 27.888 12.2683 27.8234 12.3257C27.767 12.3832 27.6944 12.4119 27.6056 12.4119H24.1449V15.1446C24.1449 15.2267 24.1166 15.3005 24.0601 15.3662C24.0037 15.4236 23.9311 15.4524 23.8423 15.4524H22.2209Z" fill="#172B4D"/>
<path d="M32.8839 15.5755C31.7385 15.5755 30.8348 15.2924 30.1734 14.7261C29.512 14.1599 29.1611 13.327 29.1207 12.2273C29.1127 11.9975 29.1086 11.6447 29.1086 11.1687C29.1086 10.6927 29.1127 10.3358 29.1207 10.0978C29.1529 9.01453 29.5038 8.18159 30.1734 7.59893C30.851 7.00808 31.7545 6.71265 32.8839 6.71265C34.0052 6.71265 34.9006 7.00808 35.5702 7.59893C36.2479 8.18159 36.6029 9.01453 36.6351 10.0978C36.6513 10.5737 36.6593 10.9307 36.6593 11.1687C36.6593 11.4149 36.6513 11.7677 36.6351 12.2273C36.5947 13.327 36.2437 14.1599 35.5823 14.7261C34.9289 15.2924 34.0294 15.5755 32.8839 15.5755ZM32.8839 13.7291C33.3033 13.7291 33.6383 13.6019 33.8883 13.3475C34.1383 13.0849 34.2714 12.6869 34.2876 12.1535C34.3038 11.6775 34.3118 11.3369 34.3118 11.1318C34.3118 10.9266 34.3038 10.5943 34.2876 10.1347C34.2714 9.60127 34.1383 9.20737 33.8883 8.95298C33.6383 8.69037 33.3033 8.55908 32.8839 8.55908C32.4563 8.55908 32.1175 8.69037 31.8675 8.95298C31.6175 9.20737 31.4844 9.60127 31.4682 10.1347C31.4602 10.3645 31.4561 10.6968 31.4561 11.1318C31.4561 11.5749 31.4602 11.9155 31.4682 12.1535C31.4844 12.6869 31.6175 13.0849 31.8675 13.3475C32.1175 13.6019 32.4563 13.7291 32.8839 13.7291Z" fill="#172B4D"/>
<path d="M38.3273 15.4524C38.2465 15.4524 38.1739 15.4236 38.1095 15.3662C38.0529 15.3005 38.0248 15.2267 38.0248 15.1446V7.15574C38.0248 7.06546 38.0529 6.99161 38.1095 6.93417C38.1659 6.86851 38.2385 6.83569 38.3273 6.83569H41.655C42.7198 6.83569 43.5506 7.08188 44.1477 7.57426C44.7527 8.06665 45.0552 8.76009 45.0552 9.65457C45.0552 10.229 44.9221 10.7173 44.6559 11.1194C44.3977 11.5215 44.0388 11.8334 43.579 12.0549L45.2125 15.0585C45.2367 15.1077 45.2488 15.1528 45.2488 15.1939C45.2488 15.2595 45.2246 15.3211 45.1762 15.3785C45.1278 15.4277 45.0673 15.4524 44.9947 15.4524H43.2885C43.0545 15.4524 42.8892 15.3416 42.7924 15.12L41.4614 12.4488H40.2997V15.1446C40.2997 15.2349 40.2673 15.3088 40.2029 15.3662C40.1463 15.4236 40.0737 15.4524 39.9851 15.4524H38.3273ZM41.6429 10.6393C41.9897 10.6393 42.2518 10.5532 42.4294 10.3808C42.6148 10.2003 42.7077 9.95412 42.7077 9.64227C42.7077 9.33042 42.6148 9.08014 42.4294 8.89138C42.2518 8.70263 41.9897 8.60826 41.6429 8.60826H40.2997V10.6393H41.6429Z" fill="#172B4D"/>
<path d="M46.7529 15.4524C46.6643 15.4524 46.5876 15.4236 46.523 15.3662C46.4666 15.3088 46.4383 15.2349 46.4383 15.1446V7.15574C46.4383 7.06546 46.4666 6.99161 46.523 6.93417C46.5876 6.86851 46.6643 6.83569 46.7529 6.83569H48.1202C48.3221 6.83569 48.4673 6.92597 48.5558 7.1065L50.6371 10.8978L52.7305 7.1065C52.8193 6.92597 52.9645 6.83569 53.1661 6.83569H54.5335C54.6223 6.83569 54.6949 6.86851 54.7513 6.93417C54.8159 6.99161 54.8481 7.06546 54.8481 7.15574V15.1446C54.8481 15.2349 54.8159 15.3088 54.7513 15.3662C54.6949 15.4236 54.6223 15.4524 54.5335 15.4524H52.9967C52.9161 15.4524 52.8435 15.4236 52.7789 15.3662C52.7225 15.3005 52.6942 15.2267 52.6942 15.1446V10.664L51.3874 13.1012C51.2826 13.29 51.1415 13.3844 50.9638 13.3844H50.3104C50.1492 13.3844 50.0079 13.29 49.8869 13.1012L48.5921 10.664V15.1446C48.5921 15.2349 48.56 15.3088 48.4953 15.3662C48.439 15.4236 48.3664 15.4524 48.2775 15.4524H46.7529Z" fill="#172B4D"/>
<path d="M56.797 15.4524C56.7165 15.4524 56.6439 15.4236 56.5792 15.3662C56.5229 15.3005 56.4945 15.2267 56.4945 15.1446V7.14343C56.4945 7.05315 56.5229 6.9793 56.5792 6.92186C56.6439 6.86442 56.7165 6.83569 56.797 6.83569H58.5274C58.6162 6.83569 58.6888 6.86442 58.7452 6.92186C58.8016 6.9793 58.8299 7.05315 58.8299 7.14343V15.1446C58.8299 15.2267 58.8016 15.3005 58.7452 15.3662C58.6888 15.4236 58.6162 15.4524 58.5274 15.4524H56.797Z" fill="#172B4D"/>
<path d="M60.7794 15.4524C60.6985 15.4524 60.6259 15.4236 60.5616 15.3662C60.5049 15.3005 60.4769 15.2267 60.4769 15.1446V7.15574C60.4769 7.06546 60.5049 6.99161 60.5616 6.93417C60.618 6.86851 60.6906 6.83569 60.7794 6.83569H62.4008C62.4894 6.83569 62.562 6.86851 62.6187 6.93417C62.675 6.99161 62.7034 7.06546 62.7034 7.15574V9.83922L64.8451 7.08188C64.9337 6.91775 65.091 6.83569 65.3171 6.83569H67.1684C67.2328 6.83569 67.2894 6.86442 67.3378 6.92186C67.3942 6.9711 67.4225 7.02853 67.4225 7.09419C67.4225 7.15985 67.4063 7.20909 67.3741 7.24191L64.5547 10.9594L67.604 15.0461C67.6362 15.079 67.6524 15.1282 67.6524 15.1939C67.6524 15.2595 67.6241 15.3211 67.5677 15.3785C67.5193 15.4277 67.4588 15.4524 67.3862 15.4524H65.4865C65.3572 15.4524 65.2524 15.4277 65.1718 15.3785C65.091 15.3211 65.0346 15.2636 65.0024 15.2062L62.7034 12.2026V15.1446C62.7034 15.2267 62.675 15.3005 62.6187 15.3662C62.562 15.4236 62.4894 15.4524 62.4008 15.4524H60.7794Z" fill="#172B4D"/>
<path d="M10.7637 0L13.2595 1.46002L3.43077 7.20979L0.934998 5.74975L10.7637 0Z" fill="#172B4D"/>
<path d="M13.3602 1.76654L3.59332 7.47751L3.59299 10.367L13.3598 4.65601L13.3602 1.76654Z" fill="#172B4D"/>
<path d="M9.43259 7.40552L3.61383 10.808L3.61353 13.6975L9.43226 10.295L9.43259 7.40552Z" fill="#172B4D"/>
<path d="M7.20202 11.9735L3.60007 14.0798L3.59973 16.9694L7.20171 14.8631L7.20202 11.9735Z" fill="#172B4D"/>
<path d="M0.757651 6.02832L3.26811 7.49622L3.26714 10.3864L0.756683 8.91849L0.757651 6.02832Z" fill="#172B4D"/>
<path d="M0.781516 9.33887L3.26152 10.789L3.26055 13.6791L0.780548 12.229L0.781516 9.33887Z" fill="#172B4D"/>
<path d="M0.78045 12.6294L3.26129 14.08L3.26026 17.1608L0.779419 15.7102L0.78045 12.6294Z" fill="#172B4D"/>
<path d="M6.30859 22L3.81281 20.54L13.53 14.8555L16.0257 16.3155L6.30859 22Z" fill="#172B4D"/>
<path d="M3.61496 20.2901L13.3671 14.5877L13.3674 11.6982L3.61527 17.4006L3.61496 20.2901Z" fill="#172B4D"/>
<path d="M7.52783 14.6597L13.3466 11.2573L13.3469 8.36774L7.52814 11.7702L7.52783 14.6597Z" fill="#172B4D"/>
<path d="M9.75842 10.0917L13.3604 7.98546L13.3607 5.09589L9.75873 7.20215L9.75842 10.0917Z" fill="#172B4D"/>
<path d="M16.2031 16.0563L13.6927 14.5884L13.6936 11.6982L16.2041 13.1661L16.2031 16.0563Z" fill="#172B4D"/>
<path d="M16.1794 12.7272L13.6994 11.2771L13.7004 8.38696L16.1804 9.83703L16.1794 12.7272Z" fill="#172B4D"/>
<path d="M16.1803 9.43664L13.6995 7.98605L13.7005 4.96063L16.1813 6.41119L16.1803 9.43664Z" fill="#172B4D"/>
</svg>
