<svg width="73" height="18" viewBox="0 0 73 18" fill="none" xmlns="http://www.w3.org/2000/svg">
<path d="M38.9022 17.0061H41.4499C41.2647 16.0375 41.17 15.1161 41.17 14.0058V9.37532C41.17 6.25687 39.3893 4.72127 36.1943 4.72127C33.3003 4.72127 31.3324 6.23324 31.0777 8.80833H33.9254C34.0181 7.69797 34.8052 6.96561 36.1017 6.96561C37.4446 6.96561 38.3243 7.67435 38.3243 9.13907V9.70607L34.8052 10.1077C32.4206 10.3912 30.5684 11.3834 30.5684 13.7931C30.5684 15.9666 32.2353 17.2659 34.5274 17.2659C36.4027 17.2659 37.9845 16.4863 38.6401 15.1161C38.6689 15.937 38.9022 17.0061 38.9022 17.0061ZM35.3377 15.1634C34.157 15.1634 33.5087 14.5727 33.5087 13.6278C33.5087 12.3757 34.4579 12.0922 35.7082 11.9268L38.3243 11.6197V12.352C38.3243 14.242 36.8658 15.1634 35.3377 15.1634ZM51.2588 17.0061H54.176V0H51.2125V6.96561C50.6569 5.76075 49.3141 4.72127 47.4851 4.72127C44.3058 4.72127 42.099 7.29635 42.099 11.0054C42.099 14.7381 44.3058 17.2896 47.4851 17.2896C49.2678 17.2896 50.68 16.2973 51.2588 15.0925V17.0061ZM51.282 11.218C51.282 13.5569 50.1938 15.0689 48.3185 15.0689C46.3969 15.0689 45.1856 13.486 45.1856 11.0054C45.1856 8.54846 46.3969 6.94198 48.3185 6.94198C50.1938 6.94198 51.282 8.45396 51.282 10.7928V11.218ZM55.9066 2.97304H59.0553V0.0199585H55.9066V2.97304ZM55.9992 17.0061H58.9627V5.00476H55.9992V17.0061ZM62.6638 17.0061L65.6041 12.8954L68.5212 17.0061H71.9246L67.3636 10.7219L71.5542 5.00476H68.3823L65.7661 8.71383L63.1731 5.00476H59.7697L64.0066 10.8637L59.4919 17.0061H62.6638Z" fill="black"/>
<path fill-rule="evenodd" clip-rule="evenodd" d="M19.9132 17V11.0168H23.7986L27.4513 17H30.7006L26.6894 10.5686C28.5045 9.986 30.0955 8.507 30.0955 6.01961C30.0955 2.7479 27.7994 1 23.9571 1H17V17H19.9132ZM19.9132 3.35294V8.68628H23.821C26.0395 8.68628 27.1599 7.76751 27.1599 6.01961C27.1599 4.27171 25.9395 3.35294 23.621 3.35294H19.9132Z" fill="black"/>
<path d="M8.16 17C5.15558 17 2.72 14.5644 2.72 11.56C2.72 8.55555 5.15558 6.12 8.16 6.12V17Z" fill="black"/>
<path d="M8.16 0H2.72V5.44H8.16V0Z" fill="black"/>
<path d="M11.56 5.44C13.0622 5.44 14.28 4.22222 14.28 2.72C14.28 1.21778 13.0622 0 11.56 0C10.0578 0 8.84 1.21778 8.84 2.72C8.84 4.22222 10.0578 5.44 11.56 5.44Z" fill="black"/>
</svg>
