<svg width="104" height="17" viewBox="0 0 104 17" fill="none" xmlns="http://www.w3.org/2000/svg">
<path d="M9.10692 6.65478C10.0649 6.65478 10.8416 7.46019 10.8416 8.45365C10.8416 9.44716 10.0649 10.2526 9.10692 10.2526C8.14889 10.2526 7.37225 9.44716 7.37225 8.45365C7.37225 7.46019 8.14889 6.65478 9.10692 6.65478Z" fill="black"/>
<path d="M18.2138 8.49977C18.2138 9.91865 16.9454 11.1644 14.9267 11.9818C15.253 14.2057 14.8464 15.9686 13.6604 16.678C12.6011 17.3121 11.1343 17.0018 9.52971 15.8033C9.38773 15.6976 9.24677 15.5852 9.10581 15.4683C8.96596 15.5852 8.82504 15.6976 8.68408 15.8033C7.07954 17.0018 5.61267 17.3133 4.55344 16.678C3.36847 15.9686 2.96191 14.2068 3.28933 11.9851C1.26847 11.1667 0 9.9198 0 8.49977C0 7.08089 1.26846 5.83519 3.28716 5.01781C2.96083 2.7939 3.36739 1.03101 4.55344 0.321572C4.9123 0.106792 5.31888 1.75089e-07 5.76122 1.75089e-07C6.62311 1.75089e-07 7.62379 0.404729 8.68408 1.19627C8.82611 1.30195 8.96707 1.41436 9.10799 1.53129C9.24784 1.41436 9.3888 1.30195 9.52971 1.19627C10.5901 0.403624 11.5907 1.75089e-07 12.4526 1.75089e-07C12.895 1.75089e-07 13.3015 0.106792 13.6604 0.321572C14.7196 0.955686 15.1934 2.42851 14.995 4.46916C14.9776 4.64902 14.9549 4.83118 14.9267 5.01666C16.9464 5.83404 18.2138 7.07979 18.2138 8.49977ZM10.0371 15.0736C10.9391 15.7471 11.7783 16.0979 12.4526 16.0979C12.7443 16.0979 13.0045 16.0327 13.2267 15.9C14.003 15.4345 14.3347 14.1 14.0973 12.2809C13.3167 12.5293 12.4526 12.7193 11.5235 12.8407C10.9673 13.5997 10.3776 14.2844 9.77365 14.869C9.86148 14.9387 9.94931 15.0084 10.0371 15.0736ZM4.98712 15.9C5.20937 16.0327 5.46957 16.0979 5.76122 16.0979C6.43555 16.0979 7.2747 15.7482 8.1767 15.0736C8.26453 15.0084 8.35236 14.9398 8.44014 14.869C7.83627 14.2844 7.2476 13.6008 6.6914 12.8419C5.76336 12.7205 4.89822 12.5293 4.11763 12.282C3.88019 14.1 4.21086 15.4345 4.98712 15.9ZM0.867324 8.49977C0.867324 9.42961 1.81705 10.3954 3.45521 11.0913C3.63843 10.2672 3.91164 9.39589 4.27266 8.50203C3.90947 7.60711 3.63626 6.73463 3.45304 5.90937C1.81705 6.60531 0.867324 7.56997 0.867324 8.49977ZM8.1767 1.92593C6.88438 0.961306 5.72217 0.65996 4.98712 1.09956C4.21086 1.56506 3.87911 2.89958 4.11654 4.71872C4.89716 4.47026 5.76122 4.28027 6.69033 4.15883C7.24649 3.39991 7.83627 2.71521 8.44014 2.13057C8.35236 2.05972 8.26453 1.99116 8.1767 1.92593ZM9.10692 2.71631C8.02277 3.74622 6.98087 5.12234 6.10165 6.7009C5.86638 7.12249 5.39072 8.1823 5.19774 8.59265C5.0438 8.2104 4.89174 7.85971 4.77245 7.48645C4.87001 7.29871 5.24625 6.44005 5.35029 6.25231C5.55629 5.88241 5.77206 5.52261 5.99432 5.17408C5.3709 5.28765 4.79413 5.43378 4.26941 5.60581C4.56757 7.0022 5.16277 8.61223 6.10165 10.2987C6.33257 10.7135 6.83427 11.6399 7.0858 12.0244C6.689 11.9715 6.37034 11.9891 5.99739 11.9092C5.88899 11.7271 5.45438 10.9351 5.35029 10.7473C5.14216 10.374 4.95135 10.0007 4.77245 9.62974C4.55562 10.2469 4.38975 10.8384 4.27158 11.396C5.58668 11.8266 7.22916 12.0976 9.10692 12.0976C9.57636 12.0976 10.5567 12.1075 10.9948 12.0748C10.753 12.4043 10.5456 12.7025 10.293 12.997C10.0881 13.0038 9.31616 12.997 9.10692 12.997C8.69275 12.997 8.28728 12.9824 7.88941 12.9577C8.28404 13.4445 8.69275 13.8897 9.10692 14.2832C10.19 13.2534 11.2329 11.8772 12.1122 10.2987C12.3431 9.88382 12.8421 8.91804 13.0383 8.49977C13.1934 8.88206 13.34 9.23068 13.4604 9.6062C13.3628 9.79509 12.9676 10.5618 12.8635 10.7484C12.6575 11.1183 12.4418 11.4781 12.2195 11.8255C12.8429 11.7119 13.4197 11.5658 13.9444 11.3938C13.6463 9.99738 13.0511 8.38736 12.1122 6.7009C11.8813 6.28604 11.224 5.33597 10.9726 4.95147C11.3694 5.00431 11.7991 5.08328 12.172 5.16312C12.2804 5.34528 12.7594 6.06453 12.8635 6.25231C13.0706 6.62332 13.2614 6.99432 13.4381 7.36422C13.6485 6.76383 13.8154 6.17358 13.9368 5.60244C12.6229 5.17182 10.9825 4.90199 9.10692 4.90199C8.63748 4.90199 7.546 4.96603 7.10801 4.99865C7.34978 4.66924 7.6102 4.32625 7.8628 4.03167C8.06769 4.02495 8.89768 4.00256 9.10692 4.00256C9.52105 4.00256 9.92652 4.01716 10.3244 4.0419C9.9287 3.55507 9.52105 3.10985 9.10692 2.71631ZM13.2267 1.09956C12.4917 0.658854 11.3284 0.960154 10.0371 1.92593C9.94931 1.99116 9.86148 2.05972 9.77365 2.13057C10.3776 2.71521 10.9662 3.3988 11.5224 4.15772C12.4494 4.27912 13.3124 4.46916 14.0919 4.71646C14.1071 4.60295 14.1222 4.48938 14.133 4.37808C14.2924 2.73433 13.9618 1.54032 13.2267 1.09956ZM14.7608 5.90826C14.5743 6.74476 14.2979 7.61609 13.9412 8.49641C14.3043 9.39137 14.5776 10.2638 14.7608 11.0891C16.3968 10.3931 17.3465 9.42961 17.3465 8.49977C17.3465 7.56997 16.3979 6.60531 14.7608 5.90826Z" fill="black"/>
<path d="M21.5037 12V3.27273H24.7764C25.4469 3.27273 26.0094 3.3892 26.4639 3.62216C26.9213 3.85511 27.2665 4.18182 27.4994 4.60227C27.7352 5.01989 27.8531 5.5071 27.8531 6.06392C27.8531 6.62358 27.7338 7.10937 27.4952 7.52131C27.2594 7.9304 26.9113 8.24716 26.4511 8.47159C25.9909 8.69318 25.4256 8.80398 24.7551 8.80398H22.4241V7.49148H24.542C24.9341 7.49148 25.2551 7.4375 25.5051 7.32955C25.7551 7.21875 25.9398 7.05824 26.0591 6.84801C26.1812 6.63494 26.2423 6.37358 26.2423 6.06392C26.2423 5.75426 26.1812 5.49006 26.0591 5.27131C25.9369 5.04972 25.7508 4.8821 25.5008 4.76847C25.2508 4.65199 24.9284 4.59375 24.5335 4.59375H23.0846V12H21.5037ZM26.0122 8.04545L28.1727 12H26.4085L24.2863 8.04545H26.0122ZM32.0442 12.1278C31.3879 12.1278 30.8212 11.9915 30.3439 11.7188C29.8694 11.4432 29.5044 11.054 29.2487 10.5511C28.993 10.0455 28.8652 9.45028 28.8652 8.76562C28.8652 8.09233 28.993 7.50142 29.2487 6.9929C29.5072 6.48153 29.868 6.08381 30.3311 5.79972C30.7942 5.51278 31.3382 5.36932 31.9632 5.36932C32.3666 5.36932 32.7473 5.43466 33.1052 5.56534C33.466 5.69318 33.7842 5.89205 34.0598 6.16193C34.3382 6.43182 34.5569 6.77557 34.716 7.19318C34.8751 7.60795 34.9547 8.10227 34.9547 8.67614V9.14915H29.5896V8.10938H33.476C33.4731 7.81392 33.4092 7.55114 33.2842 7.32102C33.1592 7.08807 32.9845 6.90483 32.7601 6.77131C32.5385 6.63778 32.28 6.57102 31.9845 6.57102C31.6692 6.57102 31.3922 6.64773 31.1535 6.80114C30.9149 6.9517 30.7288 7.15057 30.5953 7.39773C30.4646 7.64205 30.3979 7.91051 30.395 8.20312V9.1108C30.395 9.49148 30.4646 9.81818 30.6038 10.0909C30.743 10.3608 30.9376 10.5682 31.1876 10.7131C31.4376 10.8551 31.7302 10.9261 32.0655 10.9261C32.2899 10.9261 32.493 10.8949 32.6748 10.8324C32.8567 10.767 33.0143 10.6719 33.1479 10.5469C33.2814 10.4219 33.3822 10.267 33.4504 10.0824L34.8908 10.2443C34.7998 10.625 34.6265 10.9574 34.3709 11.2415C34.118 11.5227 33.7942 11.7415 33.3993 11.8977C33.0044 12.0511 32.5527 12.1278 32.0442 12.1278ZM38.1432 12.1321C37.7285 12.1321 37.3549 12.0582 37.0225 11.9105C36.693 11.7599 36.4316 11.5384 36.2384 11.2457C36.0481 10.9531 35.9529 10.5923 35.9529 10.1634C35.9529 9.79403 36.0211 9.48864 36.1574 9.24716C36.2938 9.00568 36.4799 8.8125 36.7157 8.66761C36.9515 8.52273 37.2171 8.41335 37.5126 8.33949C37.8109 8.26278 38.1191 8.20739 38.4373 8.1733C38.8208 8.13352 39.1319 8.09801 39.3705 8.06676C39.6091 8.03267 39.7824 7.98153 39.8904 7.91335C40.0012 7.84233 40.0566 7.73295 40.0566 7.58523V7.55966C40.0566 7.23864 39.9614 6.99006 39.7711 6.81392C39.5807 6.63778 39.3066 6.54972 38.9486 6.54972C38.5708 6.54972 38.2711 6.6321 38.0495 6.79688C37.8307 6.96165 37.683 7.15625 37.6063 7.38068L36.166 7.17614C36.2796 6.77841 36.4671 6.44602 36.7285 6.17898C36.9898 5.90909 37.3094 5.70739 37.6873 5.57386C38.0651 5.4375 38.4827 5.36932 38.9401 5.36932C39.2555 5.36932 39.5694 5.40625 39.8819 5.48011C40.1944 5.55398 40.4799 5.67614 40.7384 5.84659C40.9969 6.0142 41.2043 6.2429 41.3606 6.53267C41.5197 6.82244 41.5992 7.18466 41.5992 7.61932V12H40.1163V11.1009H40.0651C39.9714 11.2827 39.8393 11.4531 39.6688 11.6122C39.5012 11.7685 39.2895 11.8949 39.0339 11.9915C38.781 12.0852 38.4841 12.1321 38.1432 12.1321ZM38.5438 10.9986C38.8535 10.9986 39.1219 10.9375 39.3492 10.8153C39.5765 10.6903 39.7512 10.5256 39.8734 10.321C39.9984 10.1165 40.0609 9.89347 40.0609 9.65199V8.88068C40.0126 8.92045 39.9302 8.95739 39.8137 8.99148C39.7001 9.02557 39.5722 9.0554 39.4302 9.08097C39.2881 9.10653 39.1475 9.12926 39.0083 9.14915C38.8691 9.16903 38.7484 9.18608 38.6461 9.20028C38.416 9.23153 38.21 9.28267 38.0282 9.35369C37.8464 9.42472 37.7029 9.52415 37.5978 9.65199C37.4927 9.77699 37.4401 9.93892 37.4401 10.1378C37.4401 10.4219 37.5438 10.6364 37.7512 10.7812C37.9586 10.9261 38.2228 10.9986 38.5438 10.9986ZM46.0055 12.1278C45.352 12.1278 44.791 11.9844 44.3222 11.6974C43.8563 11.4105 43.4969 11.0142 43.2441 10.5085C42.9941 10 42.8691 9.41477 42.8691 8.75284C42.8691 8.08807 42.9969 7.50142 43.2526 6.9929C43.5083 6.48153 43.8691 6.08381 44.335 5.79972C44.8037 5.51278 45.3577 5.36932 45.9969 5.36932C46.5282 5.36932 46.9984 5.46733 47.4074 5.66335C47.8194 5.85653 48.1475 6.13068 48.3918 6.4858C48.6361 6.83807 48.7753 7.25 48.8094 7.72159H47.335C47.2753 7.40625 47.1333 7.14347 46.9089 6.93324C46.6873 6.72017 46.3904 6.61364 46.0182 6.61364C45.7029 6.61364 45.4259 6.69886 45.1873 6.86932C44.9486 7.03693 44.7626 7.27841 44.629 7.59375C44.4984 7.90909 44.433 8.28693 44.433 8.72727C44.433 9.1733 44.4984 9.55682 44.629 9.87784C44.7597 10.196 44.943 10.4418 45.1787 10.6151C45.4174 10.7855 45.6972 10.8707 46.0182 10.8707C46.2455 10.8707 46.4486 10.8281 46.6276 10.7429C46.8094 10.6548 46.9614 10.5284 47.0836 10.3636C47.2057 10.1989 47.2895 9.99858 47.335 9.76278H48.8094C48.7725 10.2259 48.6361 10.6364 48.4003 10.9943C48.1645 11.3494 47.8435 11.6278 47.4373 11.8295C47.031 12.0284 46.5537 12.1278 46.0055 12.1278ZM53.3446 5.45455V6.64773H49.5818V5.45455H53.3446ZM50.5108 3.88636H52.0534V10.0312C52.0534 10.2386 52.0846 10.3977 52.1471 10.5085C52.2125 10.6165 52.2977 10.6903 52.4028 10.7301C52.5079 10.7699 52.6244 10.7898 52.7523 10.7898C52.8488 10.7898 52.9369 10.7827 53.0165 10.7685C53.0988 10.7543 53.1613 10.7415 53.204 10.7301L53.4639 11.9361C53.3815 11.9645 53.2636 11.9957 53.1102 12.0298C52.9596 12.0639 52.775 12.0838 52.5562 12.0895C52.1699 12.1009 51.8219 12.0426 51.5122 11.9148C51.2025 11.7841 50.9568 11.5824 50.775 11.3097C50.596 11.0369 50.5079 10.696 50.5108 10.2869V3.88636Z" fill="black"/>
</svg>
