<svg width="100" height="20" viewBox="0 0 100 20" fill="none" xmlns="http://www.w3.org/2000/svg">
<g clip-path="url(#clip0_1_5)">
<path fill-rule="evenodd" clip-rule="evenodd" d="M26.64 15.831C25.8065 15.8338 24.9769 15.718 24.176 15.487C23.386 15.258 22.731 14.941 22.208 14.535L23.008 12.759C24.096 13.517 25.318 13.895 26.672 13.895C27.376 13.895 27.917 13.781 28.296 13.551C28.675 13.322 28.864 13.005 28.864 12.599C28.864 12.237 28.691 11.954 28.344 11.751C27.997 11.549 27.381 11.351 26.496 11.159C25.504 10.957 24.712 10.711 24.12 10.423C23.528 10.135 23.096 9.781 22.824 9.359C22.552 8.939 22.416 8.419 22.416 7.799C22.416 7.117 22.606 6.509 22.984 5.975C23.363 5.442 23.894 5.023 24.576 4.719C25.259 4.415 26.048 4.263 26.944 4.263C27.744 4.263 28.514 4.381 29.256 4.615C29.997 4.85 30.586 5.165 31.024 5.559L30.224 7.335C29.189 6.578 28.101 6.2 26.96 6.2C26.31 6.2 25.797 6.326 25.424 6.576C25.051 6.827 24.864 7.171 24.864 7.608C24.864 7.864 24.936 8.075 25.08 8.24C25.224 8.406 25.464 8.552 25.8 8.68C26.136 8.808 26.613 8.942 27.232 9.08C28.682 9.4 29.725 9.811 30.36 10.312C30.995 10.814 31.312 11.507 31.312 12.392C31.312 13.459 30.902 14.299 30.08 14.912C29.259 15.526 28.112 15.831 26.64 15.831ZM37.104 14.039C37.349 14.039 37.606 14.023 37.872 13.991L37.744 15.751C37.4365 15.7936 37.1264 15.8149 36.816 15.815C35.621 15.815 34.749 15.554 34.2 15.031C33.65 14.509 33.376 13.714 33.376 12.647V9.64H31.888V7.831H33.376V5.527H35.792V7.831H37.76V9.64H35.792V12.632C35.792 13.571 36.23 14.04 37.104 14.04V14.039ZM42.72 15.815C41.888 15.815 41.157 15.647 40.528 15.311C39.9135 14.9895 39.4071 14.4943 39.072 13.887C38.731 13.274 38.56 12.551 38.56 11.719C38.56 10.887 38.73 10.165 39.072 9.551C39.4059 8.94487 39.9128 8.45192 40.528 8.135C41.158 7.805 41.888 7.639 42.72 7.639C43.552 7.639 44.283 7.805 44.912 8.135C45.542 8.466 46.027 8.938 46.368 9.551C46.709 10.165 46.88 10.887 46.88 11.719C46.88 12.551 46.71 13.274 46.368 13.887C46.0329 14.4943 45.5266 14.9895 44.912 15.311C44.282 15.647 43.552 15.815 42.72 15.815ZM42.72 13.975C43.893 13.975 44.48 13.223 44.48 11.719C44.48 10.962 44.328 10.397 44.024 10.023C43.72 9.65 43.285 9.463 42.72 9.463C41.547 9.463 40.96 10.215 40.96 11.719C40.96 13.223 41.547 13.975 42.72 13.975ZM53.568 9.624L52.208 9.768C51.536 9.832 51.062 10.021 50.784 10.335C50.507 10.65 50.368 11.069 50.368 11.591V15.688H47.952V7.832H50.272V9.16C50.667 8.253 51.482 7.757 52.72 7.672L53.424 7.624L53.568 9.624ZM60.588 7.847H62.956L58.22 18.567H55.772L57.276 15.255L54.044 7.847H56.556L58.54 12.839L60.588 7.847ZM68.556 7.639C69.239 7.639 69.841 7.805 70.364 8.135C70.887 8.466 71.294 8.938 71.588 9.551C71.881 10.165 72.028 10.877 72.028 11.687C72.028 12.498 71.881 13.216 71.588 13.839C71.295 14.463 70.884 14.949 70.356 15.296C69.8211 15.6446 69.1944 15.8257 68.556 15.816C68.0445 15.8234 67.539 15.7049 67.084 15.471C66.6635 15.2576 66.3135 14.9274 66.076 14.52V15.688H63.692V4.408H66.108V8.888C66.3452 8.49097 66.6926 8.17136 67.108 7.968C67.5577 7.74488 68.0541 7.6321 68.556 7.639ZM67.852 13.976C68.418 13.976 68.855 13.776 69.164 13.376C69.474 12.976 69.628 12.413 69.628 11.688C69.628 10.973 69.474 10.426 69.164 10.048C68.854 9.668 68.418 9.479 67.852 9.479C67.287 9.479 66.85 9.674 66.54 10.064C66.23 10.453 66.076 11.004 66.076 11.719C66.076 12.445 66.231 13.002 66.54 13.392C66.85 13.781 67.287 13.976 67.852 13.976ZM77.276 15.816C76.444 15.816 75.713 15.647 75.084 15.311C74.4695 14.9894 73.9631 14.4942 73.628 13.887C73.287 13.274 73.116 12.551 73.116 11.719C73.116 10.887 73.286 10.165 73.628 9.551C73.9619 8.94487 74.4688 8.45192 75.084 8.135C75.714 7.805 76.444 7.639 77.276 7.639C78.108 7.639 78.839 7.805 79.468 8.135C80.098 8.466 80.583 8.938 80.924 9.551C81.265 10.165 81.436 10.887 81.436 11.719C81.436 12.551 81.266 13.274 80.924 13.887C80.5889 14.4942 80.0825 14.9894 79.468 15.311C78.838 15.647 78.108 15.816 77.276 15.816ZM77.276 13.976C78.45 13.976 79.036 13.223 79.036 11.719C79.036 10.962 78.884 10.397 78.58 10.023C78.276 9.65 77.841 9.463 77.276 9.463C76.103 9.463 75.516 10.215 75.516 11.719C75.516 13.223 76.103 13.976 77.276 13.976ZM86.284 15.816C85.452 15.816 84.721 15.647 84.092 15.311C83.4775 14.9895 82.9711 14.4943 82.636 13.887C82.295 13.274 82.124 12.551 82.124 11.719C82.124 10.887 82.294 10.165 82.636 9.551C82.9699 8.94487 83.4768 8.45192 84.092 8.135C84.722 7.805 85.452 7.639 86.284 7.639C87.116 7.639 87.847 7.805 88.476 8.135C89.106 8.466 89.591 8.938 89.932 9.551C90.273 10.165 90.444 10.887 90.444 11.719C90.444 12.551 90.274 13.274 89.932 13.887C89.5969 14.4943 89.0906 14.9895 88.476 15.311C87.846 15.647 87.116 15.816 86.284 15.816ZM86.284 13.976C87.457 13.976 88.044 13.223 88.044 11.719C88.044 10.962 87.892 10.397 87.588 10.023C87.284 9.65 86.849 9.463 86.284 9.463C85.111 9.463 84.524 10.215 84.524 11.719C84.524 13.223 85.111 13.976 86.284 13.976ZM100 15.686H97.04L94.032 12.183V15.687H91.616V4.408H94.032V11.191L96.928 7.847H99.808L96.512 11.591L100 15.689V15.686Z" fill="black"/>
<path d="M0.62 18.43L-4.08967e-07 1.91998C-0.00935698 1.65776 0.0841084 1.40226 0.260462 1.20797C0.436815 1.01368 0.682099 0.895983 0.944 0.879979L14.984 0.00197896C15.1212 -0.0067746 15.2587 0.0127052 15.388 0.0592139C15.5174 0.105723 15.6358 0.178271 15.736 0.272374C15.8362 0.366477 15.916 0.480133 15.9706 0.606315C16.0251 0.732497 16.0531 0.868522 16.053 1.00598V18.995C16.0529 19.1308 16.0252 19.2652 15.9718 19.39C15.9183 19.5149 15.8401 19.6276 15.7419 19.7214C15.6437 19.8152 15.5275 19.8882 15.4003 19.9359C15.2732 19.9836 15.1377 20.0051 15.002 19.999L1.58 19.396C1.32785 19.3846 1.08918 19.2789 0.911354 19.0998C0.733525 18.9206 0.629529 18.6822 0.62 18.43Z" fill="black"/>
<path fill-rule="evenodd" clip-rule="evenodd" d="M13.88 0.0709839L11.948 0.190984L11.854 2.45798C11.8528 2.48635 11.8598 2.51446 11.874 2.53905C11.8881 2.56363 11.909 2.58369 11.9341 2.59689C11.9593 2.61008 11.9876 2.61587 12.0159 2.61359C12.0442 2.61131 12.0713 2.60104 12.094 2.58398L12.974 1.91598L13.718 2.50198C13.7405 2.51976 13.7675 2.53074 13.796 2.53361C13.8245 2.53649 13.8533 2.53114 13.8788 2.5182C13.9044 2.50526 13.9257 2.48528 13.9403 2.46061C13.9548 2.43594 13.962 2.40761 13.961 2.37898L13.88 0.0709839ZM12.376 7.66098C12.023 7.93598 9.387 8.12298 9.387 7.73198C9.443 6.23898 8.775 6.17398 8.403 6.17398C8.051 6.17398 7.457 6.27998 7.457 7.07998C7.457 7.89498 8.325 8.35498 9.344 8.89498C10.791 9.66198 12.544 10.591 12.544 12.927C12.544 15.167 10.724 16.403 8.404 16.403C6.009 16.403 3.916 15.434 4.152 12.075C4.245 11.681 7.29 11.775 7.29 12.075C7.252 13.461 7.568 13.869 8.366 13.869C8.979 13.869 9.257 13.531 9.257 12.963C9.257 12.102 8.353 11.594 7.312 11.01C5.903 10.219 4.245 9.28798 4.245 7.15098C4.245 5.01898 5.711 3.59698 8.329 3.59698C10.947 3.59698 12.376 4.99698 12.376 7.66098Z" fill="white"/>
</g>
<defs>
<clipPath id="clip0_1_5">
<rect width="100" height="20" fill="white"/>
</clipPath>
</defs>
</svg>
