<svg width="98" height="19" viewBox="0 0 98 19" fill="none" xmlns="http://www.w3.org/2000/svg">
<g clip-path="url(#clip0_1_16)">
<path fill-rule="evenodd" clip-rule="evenodd" d="M0.702574 0H18.0327C18.4208 0 18.7353 0.314553 18.7353 0.702574V18.0327C18.7353 18.4208 18.4208 18.7353 18.0327 18.7353H0.702574C0.314553 18.7353 0 18.4208 0 18.0327V0.702574C0 0.314553 0.314553 0 0.702574 0ZM10.4148 9.96747V8.43088H3.74706V9.96747H6.12757V16.8092H8.0226V9.96747H10.4148ZM11.1703 16.6285C11.4759 16.7843 11.8374 16.9012 12.2547 16.9791C12.6719 17.057 13.1117 17.096 13.574 17.096C14.0246 17.096 14.4526 17.0531 14.8581 16.9674C15.2636 16.8817 15.6192 16.7405 15.9248 16.5438C16.2304 16.347 16.4723 16.09 16.6506 15.7725C16.8288 15.455 16.918 15.0626 16.918 14.5952C16.918 14.2563 16.867 13.9593 16.7652 13.7041C16.6633 13.449 16.5164 13.2221 16.3244 13.0234C16.1325 12.8247 15.9022 12.6465 15.6339 12.4888C15.3655 12.3311 15.0628 12.182 14.7259 12.0418C14.4791 11.9405 14.2577 11.8421 14.0618 11.7467C13.8659 11.6513 13.6994 11.5539 13.5623 11.4546C13.4251 11.3552 13.3194 11.2501 13.2449 11.1391C13.1705 11.0281 13.1332 10.9024 13.1332 10.7622C13.1332 10.6336 13.1666 10.5178 13.2332 10.4146C13.2998 10.3113 13.3938 10.2227 13.5153 10.1487C13.6367 10.0747 13.7856 10.0173 13.9619 9.97633C14.1382 9.93547 14.3341 9.91501 14.5496 9.91501C14.7063 9.91501 14.8719 9.92668 15.0462 9.95003C15.2206 9.97345 15.3959 10.0095 15.5721 10.0581C15.7485 10.1068 15.9199 10.1681 16.0864 10.2422C16.2529 10.3162 16.4067 10.4019 16.5477 10.4993V8.75227C16.2617 8.64317 15.9493 8.56232 15.6104 8.50979C15.2714 8.45718 14.8826 8.43088 14.4438 8.43088C13.9971 8.43088 13.574 8.47859 13.1744 8.57406C12.7747 8.66947 12.4232 8.81849 12.1195 9.02104C11.8158 9.2236 11.5759 9.48164 11.3996 9.79517C11.2232 10.1088 11.1351 10.4837 11.1351 10.9199C11.1351 11.477 11.2967 11.9523 11.62 12.3456C11.9432 12.7391 12.4339 13.0721 13.0922 13.3448C13.3507 13.45 13.5917 13.5532 13.815 13.6545C14.0383 13.7557 14.2313 13.8609 14.3938 13.97C14.5565 14.0791 14.6847 14.1978 14.7788 14.3264C14.8728 14.4549 14.9199 14.601 14.9199 14.7646C14.9199 14.8854 14.8905 14.9974 14.8317 15.1006C14.7729 15.2038 14.6838 15.2934 14.5643 15.3694C14.4448 15.4453 14.2959 15.5048 14.1176 15.5476C13.9393 15.5904 13.7307 15.6118 13.4917 15.6118C13.0843 15.6118 12.6808 15.5408 12.2811 15.3986C11.8815 15.2564 11.5113 15.0431 11.1703 14.7588V16.6285Z" fill="black"/>
</g>
<g clip-path="url(#clip1_1_16)">
<path fill-rule="evenodd" clip-rule="evenodd" d="M60.4413 14.1454V13.1251C61.3727 13.715 62.3162 14.01 63.2719 14.01C64.2879 14.01 65.0591 13.8008 65.5852 13.3825C66.1114 12.9641 66.3745 12.3787 66.3745 11.6262C66.3745 10.9641 66.1976 10.4359 65.8438 10.0416C65.5026 9.66142 64.7776 9.14829 63.6688 8.5022L63.5439 8.42987C62.2255 7.66538 61.3908 7.02581 61.04 6.51113C60.6893 5.99645 60.5139 5.40203 60.5139 4.72784C60.5139 3.81286 60.8707 3.03635 61.5844 2.39827C62.298 1.7602 63.2507 1.44116 64.4422 1.44116C65.2163 1.44116 65.9904 1.57058 66.7646 1.82942V2.76847C66.0025 2.42536 65.189 2.25381 64.3242 2.25381C63.4412 2.25381 62.7411 2.47652 62.224 2.92197C61.7069 3.36742 61.4483 3.93325 61.4483 4.61949C61.4483 5.28164 61.6252 5.80834 61.979 6.19962C62.3329 6.5909 63.0964 7.12362 64.2697 7.79781C65.4854 8.48405 66.2944 9.09352 66.6965 9.62625C67.0987 10.159 67.2999 10.7715 67.2999 11.4638C67.2999 12.4569 66.9536 13.2666 66.2611 13.8926C65.5686 14.5186 64.5903 14.8316 63.3263 14.8316C62.8787 14.8316 62.3631 14.7625 61.7794 14.624C61.1958 14.4855 60.7498 14.326 60.4413 14.1454ZM28.1983 3.48381H31.9185V1.6589H22.3383V3.48381H26.0493V14.6139H28.1983V3.48381ZM35.3477 16.0951L39.5391 5.36033H37.4161L35.0937 12.1012C35.0386 12.3078 34.9955 12.476 34.9641 12.606L34.9304 12.7518H34.8851C34.8366 12.5452 34.7982 12.3839 34.7695 12.2679L34.7217 12.0831L32.5081 5.36033H30.1766L33.869 14.5951L33.243 16.1132C32.8559 16.8842 32.2693 17.2698 31.483 17.2698C31.2108 17.2698 30.9084 17.2156 30.5757 17.1071V18.8511C30.8721 18.9294 31.2411 18.9685 31.6826 18.9685C33.2551 18.9685 34.4768 18.0107 35.3477 16.0951ZM42.9843 13.2428H42.9481V18.8597H40.8454V5.35932H42.9481V6.98478H42.9843C43.7033 5.75664 44.7546 5.14259 46.1383 5.14259C47.3164 5.14259 48.2348 5.55497 48.8934 6.37974C49.552 7.20452 49.8813 8.31223 49.8813 9.70292C49.8813 11.2441 49.5097 12.4783 48.7666 13.4054C48.0234 14.3325 47.0083 14.796 45.7213 14.796C44.5371 14.796 43.6248 14.2783 42.9843 13.2428ZM42.9139 10.7915V9.65082C42.9139 8.86048 43.1418 8.20179 43.5976 7.67486C44.0533 7.14793 44.6555 6.88446 45.404 6.88446C46.1103 6.88446 46.6702 7.14044 47.0837 7.6524C47.4972 8.16437 47.704 8.87244 47.704 9.77664C47.704 10.8544 47.4822 11.6942 47.0384 12.296C46.5948 12.8978 45.9836 13.1987 45.2048 13.1987C44.5408 13.1987 43.9929 12.9652 43.5613 12.4981C43.1297 12.0311 42.9139 11.4622 42.9139 10.7915ZM59.3526 10.5565H53.0814C53.1053 11.4122 53.3674 12.0719 53.8675 12.5359C54.3677 12.9999 55.055 13.2319 55.9295 13.2319C56.9118 13.2319 57.8132 12.9366 58.6339 12.3461V14.0363C57.7953 14.5665 56.6872 14.8316 55.3096 14.8316C53.9559 14.8316 52.8942 14.4114 52.1245 13.5708C51.3548 12.7303 50.97 11.5478 50.97 10.0233C50.97 8.58316 51.3937 7.4097 52.2413 6.50285C53.0889 5.596 54.1416 5.14259 55.3994 5.14259C56.6573 5.14259 57.6306 5.54931 58.3194 6.36276C59.0082 7.17621 59.3526 8.30598 59.3526 9.75214V10.5565ZM56.8646 7.29723C57.2109 7.71758 57.3871 8.30575 57.3931 9.06174H53.1473C53.2428 8.34809 53.4982 7.7705 53.9131 7.32899C54.3282 6.88747 54.8343 6.66672 55.4314 6.66672C56.0405 6.66672 56.5182 6.87688 56.8646 7.29723ZM72.6241 14.8316C73.5836 14.8316 74.4095 14.6212 75.1017 14.2001V13.3341C74.4095 13.8273 73.5958 14.0739 72.6605 14.0739C71.6404 14.0739 70.8191 13.71 70.1966 12.9822C69.5742 12.2545 69.263 11.2923 69.263 10.0954C69.263 8.85645 69.603 7.84753 70.2832 7.06867C70.9633 6.28981 71.8499 5.90039 72.9429 5.90039C73.7385 5.90039 74.4702 6.10487 75.1382 6.51385V5.57562C74.4702 5.28693 73.781 5.14259 73.0705 5.14259C71.698 5.14259 70.5747 5.6102 69.7002 6.54543C68.8257 7.48066 68.3885 8.68199 68.3885 10.1495C68.3885 11.5448 68.7771 12.674 69.5544 13.5371C70.3317 14.4001 71.355 14.8316 72.6241 14.8316ZM80.5815 6.19495C80.305 5.99537 79.9804 5.89557 79.6078 5.89557C78.8805 5.89557 78.2705 6.27358 77.7776 7.0296C77.2847 7.78561 77.0383 8.85911 77.0383 10.2502V14.6139H76.2269V5.32403H77.0383V7.38341H77.0744C77.2847 6.67577 77.6183 6.1254 78.0751 5.73228C78.5319 5.33915 79.0608 5.14259 79.6618 5.14259C80.0045 5.14259 80.311 5.19702 80.5815 5.30589V6.19495ZM81.8815 2.86932C82.0224 3.00588 82.1848 3.07416 82.3686 3.07416C82.5647 3.07416 82.7331 3.00278 82.874 2.86001C83.015 2.71724 83.0854 2.54654 83.0854 2.34791C83.0854 2.13686 83.0134 1.96927 82.8695 1.84512C82.7255 1.72098 82.5585 1.6589 82.3686 1.6589C82.1909 1.6589 82.0301 1.72253 81.8861 1.84978C81.7421 1.97703 81.6701 2.14307 81.6701 2.34791C81.6701 2.55896 81.7406 2.73276 81.8815 2.86932ZM81.8879 14.6139V5.36033H82.7588V14.6139H81.8879ZM85.5483 12.9668H85.5844C86.246 14.2121 87.2684 14.8348 88.6517 14.8348C89.8907 14.8348 90.8875 14.358 91.6423 13.4044C92.3971 12.4508 92.7745 11.201 92.7745 9.65479C92.7745 8.26503 92.4452 7.16557 91.7866 6.35637C91.1281 5.54718 90.2124 5.14259 89.0397 5.14259C88.2999 5.14259 87.6217 5.32758 87.0053 5.69759C86.3888 6.06759 85.9153 6.5925 85.5844 7.27235H85.5483V5.3682H84.7184V18.8597H85.5483V12.9668ZM85.5893 9.52753V10.6901C85.5893 11.6153 85.8839 12.4099 86.4731 13.0738C87.0622 13.7376 87.8366 14.0696 88.7963 14.0696C89.7499 14.0696 90.5243 13.6656 91.1196 12.8574C91.7148 12.0494 92.0124 10.9874 92.0124 9.67172C92.0124 8.51815 91.739 7.60193 91.1924 6.92302C90.6458 6.24411 89.9169 5.90465 89.0059 5.90465C87.9186 5.90465 87.0774 6.26513 86.4821 6.9861C85.8869 7.70707 85.5893 8.5542 85.5893 9.52753ZM96.7887 14.8316C97.1656 14.8316 97.5691 14.7295 98 14.5252V13.7503C97.6051 13.9726 97.2376 14.0837 96.8961 14.0837C96.4176 14.0837 96.0782 13.9411 95.8779 13.6557C95.6776 13.3704 95.5774 12.9093 95.5774 12.2725V6.18085H98V5.4239H95.5774V2.74755C95.4455 2.79561 95.3086 2.84067 95.1645 2.88272C95.0211 2.93078 94.8835 2.97884 94.7523 3.0269V5.4239H93.101V6.18085H94.7523V12.3806C94.7523 14.0146 95.4311 14.8316 96.7887 14.8316Z" fill="black"/>
</g>
<defs>
<clipPath id="clip0_1_16">
<rect width="18.7353" height="18.7353" fill="white"/>
</clipPath>
<clipPath id="clip1_1_16">
<rect width="75.6618" height="18.0147" fill="white" transform="translate(22.3383 0.720581)"/>
</clipPath>
</defs>
</svg>
