<svg width="129" height="16" viewBox="0 0 129 16" fill="none" xmlns="http://www.w3.org/2000/svg">
<g clip-path="url(#clip0_1_56)">
<path fill-rule="evenodd" clip-rule="evenodd" d="M13.273 0C9.73326 0 7.52153 1.74555 6.63622 5.23664C7.96367 3.4911 9.51219 2.83665 11.2818 3.27277C12.2914 3.52155 13.0134 4.24413 13.8118 5.04413C15.1133 6.34684 16.6197 7.85445 19.9092 7.85445C23.4484 7.85445 25.6606 6.1089 26.5454 2.61832C25.2185 4.36387 23.6699 5.01832 21.9004 4.58168C20.8902 4.3329 20.1682 3.61032 19.3698 2.81084C18.0683 1.5071 16.5625 0 13.273 0ZM6.63622 7.85445C3.09704 7.85445 0.884794 9.6 0 13.0911C1.32745 11.3455 2.87597 10.6911 4.64504 11.1272C5.65519 11.376 6.37718 12.0986 7.17562 12.8986C8.47707 14.2013 9.98294 15.7089 13.273 15.7089C16.8121 15.7089 19.0244 13.9639 19.9092 10.4728C18.5817 12.2183 17.0332 12.8728 15.2636 12.4366C14.254 12.1874 13.532 11.4648 12.7335 10.6653C11.4321 9.36258 9.92572 7.85445 6.63622 7.85445Z" fill="black"/>
<path fill-rule="evenodd" clip-rule="evenodd" d="M39.8163 6.61938H37.5V11.0411C37.5 12.2204 38.2844 12.2018 39.8163 12.128V13.9154C36.7151 14.2839 35.4823 13.4364 35.4823 11.0411V6.61938H33.7637V4.70299H35.4823V2.22867L37.5 1.63873V4.70299H39.8163V6.61938ZM48.6455 4.70299H50.6627V13.9154H48.6455V12.5889C47.9355 13.5649 46.8332 14.1549 45.3763 14.1549C42.8358 14.1549 40.725 12.0362 40.725 9.30893C40.725 6.56415 42.8358 4.46351 45.3763 4.46351C46.8332 4.46351 47.9355 5.05293 48.6455 6.01138V4.70299ZM45.6941 12.2571C47.3753 12.2571 48.6455 11.0225 48.6455 9.30893C48.6455 7.59538 47.3753 6.36131 45.6941 6.36131C44.0129 6.36131 42.7427 7.59589 42.7427 9.30893C42.7427 11.0225 44.0129 12.2571 45.6941 12.2571ZM54.025 3.32131C53.3155 3.32131 52.7366 2.73189 52.7366 2.05009C52.7382 1.71219 52.8747 1.38871 53.1162 1.15045C53.3577 0.912198 53.6845 0.778584 54.025 0.778861C54.3656 0.778447 54.6925 0.912001 54.9341 1.15027C55.1757 1.38854 55.3123 1.7121 55.314 2.05009C55.314 2.73138 54.735 3.32131 54.025 3.32131ZM53.0164 13.9154V4.70299H55.0341V13.9154H53.0164ZM57.3691 13.9154V0.464539H59.3863V13.9149H57.3691V13.9154ZM72.4814 4.70299H74.6109L71.6782 13.9154H69.698L67.7552 7.70634L65.7936 13.9154H63.8139L60.8807 4.70299H63.0103L64.8225 11.0591L66.784 4.70299H68.7081L70.6504 11.0591L72.4814 4.70299ZM77.1139 3.32131C76.4039 3.32131 75.825 2.73189 75.825 2.05009C75.8266 1.7121 75.9632 1.38854 76.2048 1.15027C76.4464 0.912001 76.7733 0.778447 77.1139 0.778861C77.4545 0.778447 77.7815 0.912001 78.0231 1.15027C78.2646 1.38854 78.4012 1.7121 78.4029 2.05009C78.4029 2.73138 77.8239 3.32131 77.1139 3.32131ZM76.1053 13.9154V4.70299H78.1225V13.9154H76.1053ZM85.3704 4.46351C87.4625 4.46351 88.957 5.86376 88.957 8.25912V13.9149H86.9398V8.46144C86.9398 7.06118 86.1179 6.32467 84.8477 6.32467C83.5213 6.32467 82.4752 7.09834 82.4752 8.97757V13.9154H80.4575V4.70299H82.4752V5.88235C83.0916 4.92441 84.1002 4.46351 85.3704 4.46351ZM98.5212 1.01835H100.539V13.9149H98.5212V12.5884C97.8117 13.5649 96.7094 14.1543 95.2525 14.1543C92.712 14.1543 90.6012 12.0356 90.6012 9.30841C90.6012 6.56364 92.712 4.46299 95.2525 4.46299C96.7094 4.46299 97.8117 5.05241 98.5212 6.01086V1.01835ZM95.5698 12.2571C97.2509 12.2571 98.5212 11.0225 98.5212 9.30893C98.5212 7.59538 97.2509 6.36131 95.5698 6.36131C93.8886 6.36131 92.6184 7.59589 92.6184 9.30893C92.6184 11.0225 93.8886 12.2571 95.5698 12.2571ZM107.301 14.1549C104.48 14.1549 102.369 12.0362 102.369 9.30893C102.369 6.56415 104.48 4.46351 107.301 4.46351C109.131 4.46351 110.719 5.40286 111.466 6.84028L109.729 7.83538C109.318 6.96931 108.403 6.41654 107.282 6.41654C105.639 6.41654 104.387 7.65112 104.387 9.30893C104.387 10.9672 105.639 12.2018 107.282 12.2018C108.403 12.2018 109.318 11.6305 109.767 10.783L111.504 11.7595C110.719 13.215 109.131 14.1549 107.301 14.1549ZM114.829 7.24544C114.829 8.92235 119.854 7.90867 119.854 11.3177C119.854 13.1603 118.229 14.1549 116.211 14.1549C114.343 14.1549 112.998 13.3254 112.401 11.999L114.138 11.0044C114.437 11.8333 115.184 12.3309 116.211 12.3309C117.108 12.3309 117.799 12.0362 117.799 11.2986C117.799 9.65938 112.774 10.5807 112.774 7.2826C112.774 5.55047 114.287 4.46351 116.193 4.46351C117.724 4.46351 118.995 5.16389 119.649 6.37989L117.949 7.31925C117.612 6.6008 116.958 6.26893 116.193 6.26893C115.464 6.26893 114.829 6.58222 114.829 7.24544ZM123.441 7.24544C123.441 8.92235 128.465 7.90867 128.465 11.3177C128.465 13.1603 126.84 14.1549 124.823 14.1549C122.955 14.1549 121.61 13.3254 121.012 11.999L122.749 11.0044C123.048 11.8333 123.795 12.3309 124.823 12.3309C125.719 12.3309 126.411 12.0362 126.411 11.2986C126.411 9.65938 121.386 10.5807 121.386 7.2826C121.386 5.55047 122.899 4.46351 124.804 4.46351C126.336 4.46351 127.606 5.16389 128.26 6.37989L126.56 7.31925C126.224 6.6008 125.57 6.26893 124.804 6.26893C124.076 6.26893 123.441 6.58222 123.441 7.24544Z" fill="black"/>
</g>
<defs>
<clipPath id="clip0_1_56">
<rect width="129" height="16" fill="white"/>
</clipPath>
</defs>
</svg>
